<svg id="icons8_carrot" xmlns="http://www.w3.org/2000/svg" width="110.829" height="110.769" viewBox="0 0 110.829 110.769">
  <path id="Tracé_84" data-name="Tracé 84" d="M77.364,28.059l-.308-.308c-1.541-1.849.616-.308,1.233-1.233s-1.541-2.774-2.157-3.39a9.551,9.551,0,0,0-4.006-1.849c.616,0,1.849,0,1.849-.616s-1.849-1.541-2.465-1.849l-3.7-1.849a12.641,12.641,0,0,0-3.39-.308c.308-.308.925-.308,1.233-.925-1.233-1.849-6.78-.925-8.321.308.616-.616.925-1.541-.308-1.541a9,9,0,0,0-2.774.616C41.309,19.123,32.68,28.059,29.906,31.141A24.951,24.951,0,0,0,25.9,37a52.008,52.008,0,0,1,13.251-9.553c3.082-1.541,8.629-3.7,12.019-1.541.925.616,1.541,1.233,2.465,1.233,0-.308.308-.616.308-.925.925.925,0,2.465.925,3.7,1.233,1.541,2.157.925,3.39,0a5.6,5.6,0,0,0,.925,4.314c.925,1.233,2.465,1.233,2.774-.308.308,1.541,2.157,7.088,4.623,4.623,1.541-1.541,2.465-4.931,1.541-6.78.925,1.233,1.849,3.39,3.082,4.314a3.739,3.739,0,0,0,4.006.308c1.849-1.233,1.849-3.082,1.849-4.931,0-1.233.308-.308.925-.616C79.213,30.217,77.981,28.676,77.364,28.059Z" transform="translate(32.321 14.687)" fill="#388e3c"/>
  <path id="Tracé_85" data-name="Tracé 85" d="M36.6,6.173c.308,0,.308.308,0,0,2.157,1.849.616-.308,1.541-.925s2.774,1.541,3.39,2.157a9.551,9.551,0,0,1,1.849,4.006c0-.616,0-1.849.616-1.849s1.541,1.849,1.849,2.465l1.849,3.7A12.641,12.641,0,0,1,48,19.116c.308-.308.308-.925.925-1.233,1.849,1.233.925,6.78-.308,8.321.616-.616,1.541-.925,1.541.308a9,9,0,0,1-.616,2.774C45.535,42.229,36.6,50.857,33.517,53.631a24.951,24.951,0,0,1-5.855,4.006,52.008,52.008,0,0,0,9.553-13.251c1.541-3.082,3.7-8.629,1.541-12.019-.616-.925-1.233-1.541-1.233-2.465.308,0,.616-.308.925-.308-.925-.925-2.465,0-3.7-.925-1.541-1.233-.925-2.157,0-3.39a5.6,5.6,0,0,1-4.314-.925c-1.233-.925-1.233-2.465.308-2.774-1.541-.308-7.088-2.157-4.623-4.623,1.541-1.541,4.931-2.465,6.78-1.541-.925-.925-3.39-1.849-4.314-3.082a3.739,3.739,0,0,1-.308-4.006c1.233-1.849,3.082-1.849,4.931-1.849,1.233,0,.308-.308.616-.925C34.441,4.324,35.982,5.556,36.6,6.173Z" transform="translate(31.484 -5.029)" fill="#388e3c"/>
  <path id="Tracé_86" data-name="Tracé 86" d="M68.08,7.253c-2.465-2.465-4.931-.925-7.088,1.233.616-.925,0-1.849-1.233-2.157a2.555,2.555,0,0,0-2.465.925c-1.233,1.233-1.233,3.39-1.233,4.931-.925-2.157-3.39-1.233-4.314.616a13.571,13.571,0,0,0-.616,4.931c-.925-.925-2.157-.925-3.39.308-3.082,3.39-3.39,12.635-18.8,27.427-.308.308.616.925.616.925C48.357,28.209,53.6,30.982,57.6,27.9c.925-.925,0-1.541-.925-1.849,1.233,0,2.465-.308,3.39-.308A10.353,10.353,0,0,0,64.382,24.2a3.106,3.106,0,0,0,.924-2.774,2.555,2.555,0,0,0-2.465-.925c1.849-.308,4.006-.616,5.547-1.849a6.493,6.493,0,0,0,1.233-3.39c0-.616-.616-2.157-1.541-1.849A4.687,4.687,0,0,0,68.08,7.253Z" transform="translate(38.524 -3.028)" fill="#4caf50"/>
  <path id="Tracé_87" data-name="Tracé 87" d="M80.945,50.889c6.163-6.163,5.855-16.949-4.314-26.811-9.861-10.17-20.339-10.478-26.5-4.314C36.877,34.248,3.594,90.027,7.292,93.417,10.374,96.5,61.53,67.222,80.945,50.889Z" transform="translate(-7.008 17.128)" fill="#ff9800"/>
  <path id="Tracé_88" data-name="Tracé 88" d="M43.423,51.715a2.979,2.979,0,0,0,4.314,0,2.979,2.979,0,0,0,0-4.314L33.87,33.533a50.193,50.193,0,0,0-3.39,5.239ZM42.191,22.131l5.855,5.855a3.329,3.329,0,0,0,2.157.925,2.8,2.8,0,0,0,2.157-.925,2.979,2.979,0,0,0,0-4.314L45.889,17.2A40.917,40.917,0,0,1,42.191,22.131ZM11.065,77.91a3.329,3.329,0,0,0,2.157.925,2.8,2.8,0,0,0,2.157-.925,2.979,2.979,0,0,0,0-4.314l-3.7-3.7C10.449,72.054,9.525,73.9,8.6,75.752ZM65,42.162a3.051,3.051,0,1,0-4.314,4.314l8.012,8.012c1.849-1.233,3.39-2.465,4.931-3.7ZM34.486,72.054a2.8,2.8,0,0,1-2.157-.925l-9.553-9.553a3.051,3.051,0,0,1,4.314-4.314l9.553,9.553a2.979,2.979,0,0,1,0,4.314A2.8,2.8,0,0,1,34.486,72.054Z" transform="translate(-3.693 20.308)" fill="#ef6c00"/>
</svg>
