<svg xmlns="http://www.w3.org/2000/svg" xmlns:xlink="http://www.w3.org/1999/xlink" width="1920" height="1080" viewBox="0 0 1920 1080">
  <defs>
    <clipPath id="clip-Web_1920_2">
      <rect width="1920" height="1080"/>
    </clipPath>
  </defs>
  <g id="Web_1920_2" data-name="Web 1920 – 2" clip-path="url(#clip-Web_1920_2)">
    <rect width="1920" height="1080" fill="#88dbef"/>
    <rect id="Rectangle_3" data-name="Rectangle 3" width="1920" height="479" transform="translate(0 601)" fill="#e2dea9"/>
    <g id="icons8_acacia" transform="translate(0 426.433)">
      <path id="Tracé_12" data-name="Tracé 12" d="M34.062,28C25.743,28,19,31.372,19,35.531s6.743,7.531,15.062,7.531,15.062-3.372,15.062-7.531S42.38,28,34.062,28Z" transform="translate(124.085 150.209)" fill="#8bc34a"/>
      <path id="Tracé_13" data-name="Tracé 13" d="M41.358,26C26.8,26,15,31.058,15,37.3s11.8,11.3,26.358,11.3,26.358-5.057,26.358-11.3S55.915,26,41.358,26Z" transform="translate(97.962 137.147)" fill="#8bc34a"/>
      <path id="Tracé_14" data-name="Tracé 14" d="M67.185,14C42.23,14,22,20.743,22,29.062S42.23,44.123,67.185,44.123,112.37,37.38,112.37,29.062,92.14,14,67.185,14ZM168.851,29.062c-18.716,0-33.889,5.057-33.889,11.3s15.172,11.3,33.889,11.3,33.889-5.057,33.889-11.3S187.567,29.062,168.851,29.062Z" transform="translate(143.678 58.777)" fill="#689f38"/>
      <path id="Tracé_15" data-name="Tracé 15" d="M78.543,13C39.031,13,7,23.115,7,35.592S39.031,58.185,78.543,58.185s71.543-10.115,71.543-22.592S118.055,13,78.543,13Z" transform="translate(45.716 52.246)" fill="#689f38"/>
      <path id="Tracé_16" data-name="Tracé 16" d="M55.062,20C46.743,20,40,23.372,40,27.531s6.743,7.531,15.062,7.531,15.062-3.372,15.062-7.531S63.38,20,55.062,20Z" transform="translate(261.232 97.962)" fill="#8bc34a"/>
      <path id="Tracé_17" data-name="Tracé 17" d="M65.185,112.839V30H35.062v82.839C35.062,120.37,20,127.9,20,127.9H80.246S65.185,120.37,65.185,112.839Z" transform="translate(130.616 163.27)" fill="#bf360c"/>
      <path id="Tracé_18" data-name="Tracé 18" d="M156.369,155.373a7.547,7.547,0,0,1-7.531-7.531c0-10.543,3.012-21.086,9.79-28.617a82.454,82.454,0,0,1,7.531-8.284c2.259-2.259,5.272-4.518,6.778-7.531s3.012-6.025,5.272-9.79c1.506-3.012,3.012-6.025,4.518-9.79A47.7,47.7,0,0,1,200.048,66.51,47.867,47.867,0,0,1,213.6,61.991l36.9-10.543c6.778-2.259,14.309-3.765,20.333-8.284,3.765-2.259,6.778-12.049,6.778-20.333a7.531,7.531,0,1,1,15.062,0c0,9.037-3.012,25.6-12.8,32.382a88.027,88.027,0,0,1-24.852,10.543L218.122,76.3a43.547,43.547,0,0,0-10.543,3.765q-6.778,3.389-11.3,11.3c-1.506,2.259-2.259,5.272-3.765,7.531a89.9,89.9,0,0,1-6.025,12.049,115.82,115.82,0,0,1-9.037,9.79,48.722,48.722,0,0,0-6.025,6.778,35.364,35.364,0,0,0-6.025,19.58c-1.506,5.272-5.272,8.284-9.037,8.284Zm-15.815-9.037a7.115,7.115,0,0,1-7.531-7.531c0-31.629-33.136-57.987-60.246-57.987C29.852,80.818,5,62.744,5,31.868a7.115,7.115,0,0,1,7.531-7.531,7.115,7.115,0,0,1,7.531,7.531c0,27.864,28.617,33.889,52.716,33.889,33.889,0,75.308,32.382,75.308,73.049A7.115,7.115,0,0,1,140.555,146.336Z" transform="translate(32.654 67.267)" fill="#bf360c"/>
      <path id="Tracé_19" data-name="Tracé 19" d="M31.612,165.222c-3.765,0-6.778-3.012-7.531-6.778-2.259-19.58-.753-38.407,4.518-54.975,6.025-18.827,15.815-34.642,28.617-45.185,9.037-7.531,19.58-12.8,29.37-16.568,0,0,18.074-7.531,18.074-21.086a7.531,7.531,0,1,1,15.062,0c0,23.346-24.852,33.889-27.864,35.395-9.037,3.765-18.074,7.531-25.6,14.309-10.543,9.037-18.827,22.592-24.1,38.407a117.138,117.138,0,0,0-3.765,48.95c.753,3.765-2.259,7.531-6.778,8.284C32.366,165.222,31.612,165.222,31.612,165.222Z" transform="translate(150.633 52.9)" fill="#bf360c"/>
      <path id="Tracé_20" data-name="Tracé 20" d="M82.024,174.912c-3.765,0-7.531-3.012-7.531-6.778-.753-11.3-1.506-22.592-2.259-34.642-.753-10.543-1.506-20.333-5.272-28.617C60.938,92.827,54.16,83.79,48.136,80.024,26.3,64.963,15,51.407,15,20.531A7.115,7.115,0,0,1,22.531,13a7.115,7.115,0,0,1,7.531,7.531c0,22.592,6.025,33.136,27.111,47.444,10.543,7.531,19.58,22.592,23.346,30.876,5.272,10.543,6.025,21.086,6.778,33.889.753,11.3,1.506,23.346,2.259,34.642a7.547,7.547,0,0,1-7.531,7.531Z" transform="translate(97.962 52.246)" fill="#bf360c"/>
      <path id="Tracé_21" data-name="Tracé 21" d="M27.531,85.3A7.115,7.115,0,0,1,20,77.765c0-15.815,9.037-24.852,16.568-32.382s13.555-12.8,13.555-24.852A7.115,7.115,0,0,1,57.654,13a7.115,7.115,0,0,1,7.531,7.531c0,18.827-9.79,28.617-18.074,36.148-6.778,6.778-12.049,11.3-12.049,21.086A7.115,7.115,0,0,1,27.531,85.3Z" transform="translate(130.616 52.246)" fill="#bf360c"/>
      <path id="Tracé_22" data-name="Tracé 22" d="M42.592,5C30.115,5,20,11.743,20,20.062S30.115,35.123,42.592,35.123,65.185,28.38,65.185,20.062,55.07,5,42.592,5Z" transform="translate(130.616)" fill="#8bc34a"/>
      <path id="Tracé_23" data-name="Tracé 23" d="M42.358,7C27.8,7,16,12.057,16,18.3s11.8,11.3,26.358,11.3,26.358-5.057,26.358-11.3S56.915,7,42.358,7Z" transform="translate(104.493 13.062)" fill="#8bc34a"/>
      <path id="Tracé_24" data-name="Tracé 24" d="M107.666,9C51.517,9,6,19.115,6,31.592S51.517,54.185,107.666,54.185,209.332,44.07,209.332,31.592,163.815,9,107.666,9Z" transform="translate(39.185 26.123)" fill="#8bc34a"/>
      <path id="Tracé_25" data-name="Tracé 25" d="M189.27,7c-16.637,0-30.123,8.429-30.123,18.827s13.487,18.827,30.123,18.827,30.123-8.429,30.123-18.827S205.907,7,189.27,7ZM43.173,67.246C19.881,67.246,1,75.676,1,86.074S19.881,104.9,43.173,104.9s42.173-8.429,42.173-18.827S66.464,67.246,43.173,67.246Z" transform="translate(6.531 13.062)" fill="#8bc34a"/>
      <path id="Tracé_26" data-name="Tracé 26" d="M22.592,63.716C10.115,63.716,0,68.773,0,75.012s10.115,11.3,22.592,11.3,22.592-5.057,22.592-11.3-10.115-11.3-22.592-11.3ZM278.64,11c-33.273,0-60.247,10.115-60.247,22.592s26.973,22.592,60.247,22.592,60.246-10.115,60.246-22.592S311.913,11,278.64,11Z" transform="translate(0 39.185)" fill="#8bc34a"/>
      <path id="Tracé_27" data-name="Tracé 27" d="M67.358,15C52.8,15,41,20.057,41,26.3s11.8,11.3,26.358,11.3,26.358-5.057,26.358-11.3S81.915,15,67.358,15Z" transform="translate(267.763 65.308)" fill="#8bc34a"/>
    </g>
    <g id="icons8_acacia-2" data-name="icons8_acacia" transform="translate(1103 426.433)">
      <path id="Tracé_12-2" data-name="Tracé 12" d="M34.062,28C25.743,28,19,31.372,19,35.531s6.743,7.531,15.062,7.531,15.062-3.372,15.062-7.531S42.38,28,34.062,28Z" transform="translate(124.085 150.209)" fill="#8bc34a"/>
      <path id="Tracé_13-2" data-name="Tracé 13" d="M41.358,26C26.8,26,15,31.058,15,37.3s11.8,11.3,26.358,11.3,26.358-5.057,26.358-11.3S55.915,26,41.358,26Z" transform="translate(97.962 137.147)" fill="#8bc34a"/>
      <path id="Tracé_14-2" data-name="Tracé 14" d="M67.185,14C42.23,14,22,20.743,22,29.062S42.23,44.123,67.185,44.123,112.37,37.38,112.37,29.062,92.14,14,67.185,14ZM168.851,29.062c-18.716,0-33.889,5.057-33.889,11.3s15.172,11.3,33.889,11.3,33.889-5.057,33.889-11.3S187.567,29.062,168.851,29.062Z" transform="translate(143.678 58.777)" fill="#689f38"/>
      <path id="Tracé_15-2" data-name="Tracé 15" d="M78.543,13C39.031,13,7,23.115,7,35.592S39.031,58.185,78.543,58.185s71.543-10.115,71.543-22.592S118.055,13,78.543,13Z" transform="translate(45.716 52.246)" fill="#689f38"/>
      <path id="Tracé_16-2" data-name="Tracé 16" d="M55.062,20C46.743,20,40,23.372,40,27.531s6.743,7.531,15.062,7.531,15.062-3.372,15.062-7.531S63.38,20,55.062,20Z" transform="translate(261.232 97.962)" fill="#8bc34a"/>
      <path id="Tracé_17-2" data-name="Tracé 17" d="M65.185,112.839V30H35.062v82.839C35.062,120.37,20,127.9,20,127.9H80.246S65.185,120.37,65.185,112.839Z" transform="translate(130.616 163.27)" fill="#bf360c"/>
      <path id="Tracé_18-2" data-name="Tracé 18" d="M156.369,155.373a7.547,7.547,0,0,1-7.531-7.531c0-10.543,3.012-21.086,9.79-28.617a82.454,82.454,0,0,1,7.531-8.284c2.259-2.259,5.272-4.518,6.778-7.531s3.012-6.025,5.272-9.79c1.506-3.012,3.012-6.025,4.518-9.79A47.7,47.7,0,0,1,200.048,66.51,47.867,47.867,0,0,1,213.6,61.991l36.9-10.543c6.778-2.259,14.309-3.765,20.333-8.284,3.765-2.259,6.778-12.049,6.778-20.333a7.531,7.531,0,1,1,15.062,0c0,9.037-3.012,25.6-12.8,32.382a88.027,88.027,0,0,1-24.852,10.543L218.122,76.3a43.547,43.547,0,0,0-10.543,3.765q-6.778,3.389-11.3,11.3c-1.506,2.259-2.259,5.272-3.765,7.531a89.9,89.9,0,0,1-6.025,12.049,115.82,115.82,0,0,1-9.037,9.79,48.722,48.722,0,0,0-6.025,6.778,35.364,35.364,0,0,0-6.025,19.58c-1.506,5.272-5.272,8.284-9.037,8.284Zm-15.815-9.037a7.115,7.115,0,0,1-7.531-7.531c0-31.629-33.136-57.987-60.246-57.987C29.852,80.818,5,62.744,5,31.868a7.115,7.115,0,0,1,7.531-7.531,7.115,7.115,0,0,1,7.531,7.531c0,27.864,28.617,33.889,52.716,33.889,33.889,0,75.308,32.382,75.308,73.049A7.115,7.115,0,0,1,140.555,146.336Z" transform="translate(32.654 67.267)" fill="#bf360c"/>
      <path id="Tracé_19-2" data-name="Tracé 19" d="M31.612,165.222c-3.765,0-6.778-3.012-7.531-6.778-2.259-19.58-.753-38.407,4.518-54.975,6.025-18.827,15.815-34.642,28.617-45.185,9.037-7.531,19.58-12.8,29.37-16.568,0,0,18.074-7.531,18.074-21.086a7.531,7.531,0,1,1,15.062,0c0,23.346-24.852,33.889-27.864,35.395-9.037,3.765-18.074,7.531-25.6,14.309-10.543,9.037-18.827,22.592-24.1,38.407a117.138,117.138,0,0,0-3.765,48.95c.753,3.765-2.259,7.531-6.778,8.284C32.366,165.222,31.612,165.222,31.612,165.222Z" transform="translate(150.633 52.9)" fill="#bf360c"/>
      <path id="Tracé_20-2" data-name="Tracé 20" d="M82.024,174.912c-3.765,0-7.531-3.012-7.531-6.778-.753-11.3-1.506-22.592-2.259-34.642-.753-10.543-1.506-20.333-5.272-28.617C60.938,92.827,54.16,83.79,48.136,80.024,26.3,64.963,15,51.407,15,20.531A7.115,7.115,0,0,1,22.531,13a7.115,7.115,0,0,1,7.531,7.531c0,22.592,6.025,33.136,27.111,47.444,10.543,7.531,19.58,22.592,23.346,30.876,5.272,10.543,6.025,21.086,6.778,33.889.753,11.3,1.506,23.346,2.259,34.642a7.547,7.547,0,0,1-7.531,7.531Z" transform="translate(97.962 52.246)" fill="#bf360c"/>
      <path id="Tracé_21-2" data-name="Tracé 21" d="M27.531,85.3A7.115,7.115,0,0,1,20,77.765c0-15.815,9.037-24.852,16.568-32.382s13.555-12.8,13.555-24.852A7.115,7.115,0,0,1,57.654,13a7.115,7.115,0,0,1,7.531,7.531c0,18.827-9.79,28.617-18.074,36.148-6.778,6.778-12.049,11.3-12.049,21.086A7.115,7.115,0,0,1,27.531,85.3Z" transform="translate(130.616 52.246)" fill="#bf360c"/>
      <path id="Tracé_22-2" data-name="Tracé 22" d="M42.592,5C30.115,5,20,11.743,20,20.062S30.115,35.123,42.592,35.123,65.185,28.38,65.185,20.062,55.07,5,42.592,5Z" transform="translate(130.616)" fill="#8bc34a"/>
      <path id="Tracé_23-2" data-name="Tracé 23" d="M42.358,7C27.8,7,16,12.057,16,18.3s11.8,11.3,26.358,11.3,26.358-5.057,26.358-11.3S56.915,7,42.358,7Z" transform="translate(104.493 13.062)" fill="#8bc34a"/>
      <path id="Tracé_24-2" data-name="Tracé 24" d="M107.666,9C51.517,9,6,19.115,6,31.592S51.517,54.185,107.666,54.185,209.332,44.07,209.332,31.592,163.815,9,107.666,9Z" transform="translate(39.185 26.123)" fill="#8bc34a"/>
      <path id="Tracé_25-2" data-name="Tracé 25" d="M189.27,7c-16.637,0-30.123,8.429-30.123,18.827s13.487,18.827,30.123,18.827,30.123-8.429,30.123-18.827S205.907,7,189.27,7ZM43.173,67.246C19.881,67.246,1,75.676,1,86.074S19.881,104.9,43.173,104.9s42.173-8.429,42.173-18.827S66.464,67.246,43.173,67.246Z" transform="translate(6.531 13.062)" fill="#8bc34a"/>
      <path id="Tracé_26-2" data-name="Tracé 26" d="M22.592,63.716C10.115,63.716,0,68.773,0,75.012s10.115,11.3,22.592,11.3,22.592-5.057,22.592-11.3-10.115-11.3-22.592-11.3ZM278.64,11c-33.273,0-60.247,10.115-60.247,22.592s26.973,22.592,60.247,22.592,60.246-10.115,60.246-22.592S311.913,11,278.64,11Z" transform="translate(0 39.185)" fill="#8bc34a"/>
      <path id="Tracé_27-2" data-name="Tracé 27" d="M67.358,15C52.8,15,41,20.057,41,26.3s11.8,11.3,26.358,11.3,26.358-5.057,26.358-11.3S81.915,15,67.358,15Z" transform="translate(267.763 65.308)" fill="#8bc34a"/>
    </g>
    <g id="icons8_acacia-3" data-name="icons8_acacia" transform="translate(1198.706 900.221)">
      <path id="Tracé_12-3" data-name="Tracé 12" d="M28.2,28c-5.08,0-9.2,2.059-9.2,4.6s4.118,4.6,9.2,4.6,9.2-2.059,9.2-4.6S33.279,28,28.2,28Z" transform="translate(68.389 82.787)" fill="#8bc34a"/>
      <path id="Tracé_13-3" data-name="Tracé 13" d="M31.1,26C22.207,26,15,29.089,15,32.9s7.207,6.9,16.1,6.9,16.1-3.089,16.1-6.9S39.989,26,31.1,26Z" transform="translate(53.992 75.588)" fill="#8bc34a"/>
      <path id="Tracé_14-3" data-name="Tracé 14" d="M49.6,14C34.355,14,22,18.118,22,23.2s12.355,9.2,27.6,9.2,27.6-4.118,27.6-9.2S64.838,14,49.6,14Zm62.092,9.2c-11.431,0-20.7,3.089-20.7,6.9s9.267,6.9,20.7,6.9,20.7-3.089,20.7-6.9S123.12,23.2,111.689,23.2Z" transform="translate(79.188 32.395)" fill="#689f38"/>
      <path id="Tracé_15-3" data-name="Tracé 15" d="M50.695,13C26.563,13,7,19.178,7,26.8S26.563,40.6,50.695,40.6s43.695-6.178,43.695-13.8S74.827,13,50.695,13Z" transform="translate(25.196 28.796)" fill="#689f38"/>
      <path id="Tracé_16-3" data-name="Tracé 16" d="M49.2,20c-5.08,0-9.2,2.059-9.2,4.6s4.118,4.6,9.2,4.6,9.2-2.059,9.2-4.6S54.279,20,49.2,20Z" transform="translate(143.978 53.992)" fill="#8bc34a"/>
      <path id="Tracé_17-3" data-name="Tracé 17" d="M47.6,80.594V30H29.2V80.594c0,4.6-9.2,9.2-9.2,9.2H56.8S47.6,85.193,47.6,80.594Z" transform="translate(71.989 89.986)" fill="#bf360c"/>
      <path id="Tracé_18-3" data-name="Tracé 18" d="M97.449,100.85a4.609,4.609,0,0,1-4.6-4.6c0-6.439,1.84-12.878,5.979-17.478a50.359,50.359,0,0,1,4.6-5.059c1.38-1.38,3.22-2.76,4.139-4.6s1.84-3.68,3.22-5.979c.92-1.84,1.84-3.68,2.76-5.979a29.133,29.133,0,0,1,10.579-10.579,29.235,29.235,0,0,1,8.279-2.76l22.537-6.439c4.139-1.38,8.739-2.3,12.418-5.059,2.3-1.38,4.14-7.359,4.14-12.418a4.6,4.6,0,1,1,9.2,0c0,5.519-1.84,15.638-7.819,19.778A53.762,53.762,0,0,1,157.7,46.116l-22.537,6.439a26.6,26.6,0,0,0-6.439,2.3,16.588,16.588,0,0,0-6.9,6.9c-.92,1.38-1.38,3.22-2.3,4.6a54.908,54.908,0,0,1-3.68,7.359,70.737,70.737,0,0,1-5.519,5.979,29.756,29.756,0,0,0-3.68,4.139,21.6,21.6,0,0,0-3.68,11.959c-.92,3.22-3.22,5.059-5.519,5.059ZM87.79,95.33a4.345,4.345,0,0,1-4.6-4.6c0-19.318-20.238-35.416-36.8-35.416C20.178,55.315,5,44.276,5,25.419a4.345,4.345,0,0,1,4.6-4.6,4.345,4.345,0,0,1,4.6,4.6c0,17.018,17.478,20.7,32.2,20.7,20.7,0,45.994,19.778,45.994,44.615A4.345,4.345,0,0,1,87.79,95.33Z" transform="translate(17.997 37.074)" fill="#bf360c"/>
      <path id="Tracé_19-3" data-name="Tracé 19" d="M28.285,106.009a4.891,4.891,0,0,1-4.6-4.14,80.709,80.709,0,0,1,2.76-33.576c3.68-11.5,9.659-21.157,17.478-27.6A63.8,63.8,0,0,1,61.861,30.578S72.9,25.978,72.9,17.7a4.6,4.6,0,1,1,9.2,0c0,14.258-15.178,20.7-17.018,21.617-5.519,2.3-11.039,4.6-15.638,8.739-6.439,5.519-11.5,13.8-14.718,23.457a71.542,71.542,0,0,0-2.3,29.9c.46,2.3-1.38,4.6-4.14,5.059C28.745,106.009,28.285,106.009,28.285,106.009Z" transform="translate(83.021 29.155)" fill="#bf360c"/>
      <path id="Tracé_20-3" data-name="Tracé 20" d="M55.935,111.888c-2.3,0-4.6-1.84-4.6-4.14-.46-6.9-.92-13.8-1.38-21.157-.46-6.439-.92-12.418-3.22-17.478-3.68-7.359-7.819-12.878-11.5-15.178C21.9,44.736,15,36.457,15,17.6A4.345,4.345,0,0,1,19.6,13a4.345,4.345,0,0,1,4.6,4.6c0,13.8,3.68,20.238,16.558,28.976,6.439,4.6,11.959,13.8,14.258,18.858,3.22,6.439,3.68,12.878,4.139,20.7.46,6.9.92,14.258,1.38,21.157a4.609,4.609,0,0,1-4.6,4.6Z" transform="translate(53.992 28.796)" fill="#bf360c"/>
      <path id="Tracé_21-3" data-name="Tracé 21" d="M24.6,57.155a4.345,4.345,0,0,1-4.6-4.6c0-9.659,5.519-15.178,10.119-19.778S38.4,24.959,38.4,17.6A4.345,4.345,0,0,1,43,13a4.345,4.345,0,0,1,4.6,4.6c0,11.5-5.979,17.478-11.039,22.077-4.139,4.139-7.359,6.9-7.359,12.878A4.345,4.345,0,0,1,24.6,57.155Z" transform="translate(71.989 28.796)" fill="#bf360c"/>
      <path id="Tracé_22-3" data-name="Tracé 22" d="M33.8,5C26.178,5,20,9.118,20,14.2s6.178,9.2,13.8,9.2,13.8-4.118,13.8-9.2S41.419,5,33.8,5Z" transform="translate(71.989)" fill="#8bc34a"/>
      <path id="Tracé_23-3" data-name="Tracé 23" d="M32.1,7C23.207,7,16,10.089,16,13.9s7.207,6.9,16.1,6.9,16.1-3.089,16.1-6.9S40.989,7,32.1,7Z" transform="translate(57.591 7.199)" fill="#8bc34a"/>
      <path id="Tracé_24-3" data-name="Tracé 24" d="M68.092,9C33.8,9,6,15.178,6,22.8S33.8,36.6,68.092,36.6s62.092-6.178,62.092-13.8S102.385,9,68.092,9Z" transform="translate(21.597 14.398)" fill="#8bc34a"/>
      <path id="Tracé_25-3" data-name="Tracé 25" d="M115.986,7c-10.161,0-18.4,5.148-18.4,11.5s8.237,11.5,18.4,11.5,18.4-5.148,18.4-11.5S126.147,7,115.986,7ZM26.757,43.8C12.532,43.8,1,48.944,1,55.294s11.532,11.5,25.757,11.5,25.757-5.148,25.757-11.5S40.982,43.8,26.757,43.8Z" transform="translate(3.599 7.199)" fill="#8bc34a"/>
      <path id="Tracé_26-3" data-name="Tracé 26" d="M13.8,43.2C6.178,43.2,0,46.285,0,50.1s6.178,6.9,13.8,6.9,13.8-3.089,13.8-6.9-6.178-6.9-13.8-6.9ZM170.179,11c-20.322,0-36.8,6.178-36.8,13.8s16.474,13.8,36.8,13.8,36.8-6.178,36.8-13.8S190.5,11,170.179,11Z" transform="translate(0 21.597)" fill="#8bc34a"/>
      <path id="Tracé_27-3" data-name="Tracé 27" d="M57.1,15C48.207,15,41,18.089,41,21.9s7.207,6.9,16.1,6.9,16.1-3.089,16.1-6.9S65.989,15,57.1,15Z" transform="translate(147.577 35.994)" fill="#8bc34a"/>
    </g>
    <g id="icons8_bamboo" transform="translate(358.479 514.848)">
      <path id="Tracé_28" data-name="Tracé 28" d="M37.512,64.2C29.427,44.7,8.976,33.281,8.5,33.281L10.878,29c.951.476,25.683,9.037,35.2,31.39Z" transform="translate(20.659 97.659)" fill="#2e7d32"/>
      <path id="Tracé_29" data-name="Tracé 29" d="M45.293,202.756H26.268C26.268,201.8,28.171,88.61,12,3H31.024C47.2,90.512,45.293,201.8,45.293,202.756ZM78.585,3H59.561c5.707,73.244,4.756,198.329,4.756,199.756H83.341C83.341,201.8,84.293,77.2,78.585,3Zm42.8,199.756c-7.61-93.7,4.756-142.683,4.756-142.683s-23.78,30.915-23.78,142.683Z" transform="translate(33.805 0)" fill="#4caf50"/>
      <path id="Tracé_30" data-name="Tracé 30" d="M62.293,15.1S37.561,11.773,29,38.883C51.354,38.883,62.293,15.1,62.293,15.1Z" transform="translate(97.659 44.971)" fill="#4caf50"/>
      <path id="Tracé_31" data-name="Tracé 31" d="M141.927,4s-6.659,23.78-33.293,28.537C120.524,8.756,141.927,4,141.927,4ZM156.2,56.317c6.183,38.049,38.049,47.561,38.049,47.561S188.061,73.439,156.2,56.317ZM46.8,42.049S23.024,28.732,4,46.8C30.159,60.122,46.8,42.049,46.8,42.049ZM37.293,170.463c.476-40.427-9.512-47.561-9.512-47.561S13.037,155.244,37.293,170.463Z" transform="translate(3.756 3.756)" fill="#388e3c"/>
      <path id="Tracé_32" data-name="Tracé 32" d="M164.707,22.229s-30.439.476-52.317-4.756C135.7-6.307,164.707,22.229,164.707,22.229Zm-4.756,19.024c0,26.634,4.756,57.073,4.756,57.073S191.817,58.376,159.951,41.254ZM50.561,26.985S18.7,36.5,12.512,74.546C44.378,57.424,50.561,26.985,50.561,26.985ZM3,103.083s7.134,6.659,28.537,4.756C22.024,90.717,3,103.083,3,103.083Zm28.537,4.756S7.756,120.2,7.756,160.156C32.012,143.985,31.537,107.839,31.537,107.839Z" transform="translate(0 18.819)" fill="#4caf50"/>
      <path id="Tracé_33" data-name="Tracé 33" d="M77.207,169.707H62.939a4.756,4.756,0,1,1,0-9.512H77.207a4.756,4.756,0,1,1,0,9.512Zm35.671-9.512H101.463a4.756,4.756,0,1,1,0-9.512h11.415a4.756,4.756,0,1,1,0,9.512Zm-73.72-14.268H24.89a4.756,4.756,0,1,1,0-9.512H39.159a4.756,4.756,0,1,1,0,9.512Zm38.049-14.268H62.939a4.756,4.756,0,1,1,0-9.512H77.207a4.756,4.756,0,1,1,0,9.512Zm35.671-4.756h-9.512a4.756,4.756,0,0,1,0-9.512h9.512a4.756,4.756,0,0,1,0,9.512ZM37.732,107.878H23.463a4.756,4.756,0,1,1,0-9.512H37.732a4.493,4.493,0,0,1,4.756,4.756A4.766,4.766,0,0,1,37.732,107.878ZM113.354,93.61h-4.28a4.756,4.756,0,1,1,0-9.512h4.28a4.493,4.493,0,0,1,4.756,4.756A4.766,4.766,0,0,1,113.354,93.61Zm-36.146,0H62.939a4.756,4.756,0,0,1,0-9.512H77.207a4.756,4.756,0,1,1,0,9.512ZM35.829,69.829H20.61a4.756,4.756,0,0,1,0-9.512h15.22a4.493,4.493,0,0,1,4.756,4.756A4.766,4.766,0,0,1,35.829,69.829ZM75.78,55.561H61.512A4.493,4.493,0,0,1,56.756,50.8a4.493,4.493,0,0,1,4.756-4.756H75.78A4.493,4.493,0,0,1,80.537,50.8,4.766,4.766,0,0,1,75.78,55.561ZM32.024,31.78H17.756A4.493,4.493,0,0,1,13,27.024a4.493,4.493,0,0,1,4.756-4.756H32.024a4.493,4.493,0,0,1,4.756,4.756A4.493,4.493,0,0,1,32.024,31.78ZM73.4,17.512H59.134a4.493,4.493,0,0,1-4.756-4.756A4.493,4.493,0,0,1,59.134,8H73.4a4.493,4.493,0,0,1,4.756,4.756A4.766,4.766,0,0,1,73.4,17.512Z" transform="translate(37.561 18.78)" fill="#388e3c"/>
    </g>
    <g id="icons8_bamboo-2" data-name="icons8_bamboo" transform="translate(981.383 902.221)">
      <path id="Tracé_28-2" data-name="Tracé 28" d="M33.885,59.794C26.81,42.733,8.916,32.745,8.5,32.745L10.581,29c.832.416,22.472,7.907,30.794,27.465Z" transform="translate(17.388 82.196)" fill="#2e7d32"/>
      <path id="Tracé_29-2" data-name="Tracé 29" d="M41.13,177.779H24.484C24.484,176.947,26.149,77.905,12,3H28.646C42.794,79.57,41.13,176.947,41.13,177.779ZM70.26,3H53.614c4.994,64.086,4.161,173.53,4.161,174.779H74.421C74.421,176.947,75.253,67.918,70.26,3Zm37.453,174.779c-6.658-81.98,4.161-124.842,4.161-124.842S91.067,79.986,91.067,177.779Z" transform="translate(28.453 0)" fill="#4caf50"/>
      <path id="Tracé_30-2" data-name="Tracé 30" d="M58.13,15.086S36.491,12.173,29,35.893C48.559,35.893,58.13,15.086,58.13,15.086Z" transform="translate(82.196 37.851)" fill="#4caf50"/>
      <path id="Tracé_31-2" data-name="Tracé 31" d="M124.681,4a37.408,37.408,0,0,1-29.13,24.968C105.954,8.161,124.681,4,124.681,4Zm12.484,45.775c5.41,33.291,33.291,41.614,33.291,41.614S165.046,64.756,137.165,49.775ZM41.453,37.291S20.646,25.639,4,41.453C26.888,53.1,41.453,37.291,41.453,37.291ZM33.13,149.649c.416-35.372-8.323-41.614-8.323-41.614S11.907,136.333,33.13,149.649Z" transform="translate(3.161 3.161)" fill="#388e3c"/>
      <path id="Tracé_32-2" data-name="Tracé 32" d="M144.488,20.451s-26.633.416-45.775-4.161C119.1-4.517,144.488,20.451,144.488,20.451ZM140.326,37.1c0,23.3,4.161,49.937,4.161,49.937S168.208,52.078,140.326,37.1ZM44.614,24.613S16.733,32.936,11.323,66.227C39.2,51.246,44.614,24.613,44.614,24.613ZM3,91.2s6.242,5.826,24.968,4.161C19.646,80.376,3,91.2,3,91.2Zm24.968,4.161S7.161,106.176,7.161,141.132C28.385,126.983,27.968,95.357,27.968,95.357Z" transform="translate(0 15.84)" fill="#4caf50"/>
      <path id="Tracé_33-2" data-name="Tracé 33" d="M69.179,149.488H56.695a4.161,4.161,0,1,1,0-8.323H69.179a4.161,4.161,0,1,1,0,8.323Zm31.21-8.323H90.4a4.161,4.161,0,1,1,0-8.323h9.987a4.161,4.161,0,1,1,0,8.323Zm-64.5-12.484H23.4a4.161,4.161,0,1,1,0-8.323H35.888a4.161,4.161,0,1,1,0,8.323ZM69.179,116.2H56.695a4.161,4.161,0,1,1,0-8.323H69.179a4.161,4.161,0,1,1,0,8.323Zm31.21-4.161H92.067a4.161,4.161,0,0,1,0-8.323h8.323a4.161,4.161,0,1,1,0,8.323ZM34.639,95.389H22.155a4.161,4.161,0,1,1,0-8.323H34.639A3.932,3.932,0,0,1,38.8,91.228,4.17,4.17,0,0,1,34.639,95.389Zm66.166-12.484H97.06a4.161,4.161,0,1,1,0-8.323h3.745a3.932,3.932,0,0,1,4.161,4.161A4.17,4.17,0,0,1,100.806,82.905Zm-31.627,0H56.695a4.161,4.161,0,1,1,0-8.323H69.179a4.161,4.161,0,1,1,0,8.323ZM32.975,62.1H19.658a4.161,4.161,0,1,1,0-8.323H32.975a3.932,3.932,0,0,1,4.161,4.161A4.17,4.17,0,0,1,32.975,62.1ZM67.93,49.614H55.446a3.932,3.932,0,0,1-4.161-4.161,3.932,3.932,0,0,1,4.161-4.161H67.93a3.932,3.932,0,0,1,4.161,4.161A4.17,4.17,0,0,1,67.93,49.614ZM29.646,28.807H17.161A3.932,3.932,0,0,1,13,24.646a3.932,3.932,0,0,1,4.161-4.161H29.646a3.932,3.932,0,0,1,4.161,4.161A3.932,3.932,0,0,1,29.646,28.807Zm36.2-12.484H53.366A3.932,3.932,0,0,1,49.2,12.161,3.932,3.932,0,0,1,53.366,8H65.85a3.932,3.932,0,0,1,4.161,4.161A4.17,4.17,0,0,1,65.85,16.323Z" transform="translate(31.614 15.807)" fill="#388e3c"/>
    </g>
    <g id="icons8_growing_plant" transform="translate(358.479 923.56)">
      <rect id="Rectangle_4" data-name="Rectangle 4" width="7.487" height="41.177" transform="translate(111.558 77.829)" fill="#8bc34a"/>
      <path id="Tracé_55" data-name="Tracé 55" d="M35.743,64.4A3.742,3.742,0,0,1,32,60.662C32,41.69,38.54,30.052,43.792,20.7c1.269-2.261,2.5-4.44,3.567-6.618A3.744,3.744,0,1,1,54.075,17.4c-1.13,2.291-2.418,4.589-3.755,6.97-5.08,9.04-10.833,19.282-10.833,36.3A3.742,3.742,0,0,1,35.743,64.4Z" transform="translate(79.558 24.654)" fill="#8bc34a"/>
      <rect id="Rectangle_5" data-name="Rectangle 5" width="8.984" height="10.283" transform="translate(54.55 107.776)" fill="#8bc34a"/>
      <path id="Tracé_56" data-name="Tracé 56" d="M21.269,63.172a4.235,4.235,0,0,1-4.492-3.964,4.139,4.139,0,0,1,0-.528c0-30.1,20.663-35.487,21.562-35.936a4.413,4.413,0,1,1,2.246,8.535h0c-.449,0-14.824,4.492-14.824,26.952,0,0-1.374,4.593-3.77,4.908A3.88,3.88,0,0,1,21.269,63.172Z" transform="translate(37.773 53.723)" fill="#8bc34a"/>
      <path id="Tracé_57" data-name="Tracé 57" d="M24.05,22.775c7.895-5.8,22.636-2.92,26.11-2.055C45.5,24.546,47.97,41.469,39.1,46.029c-6.255,3.073-11.953,1.157-13.637-7.8C18.318,35.24,18.457,26.941,24.05,22.775Z" transform="translate(46.548 44.513)" fill="#8bc34a"/>
      <path id="Tracé_58" data-name="Tracé 58" d="M35.134,44.944C43.774,40.471,41.618,23.7,46.2,19.635,41.839,20.687,34.7,25.681,21.411,36.9c1.771,9.2,7.472,11.118,13.723,8.041Z" transform="translate(50.508 45.598)" fill="#689f38"/>
      <path id="Tracé_59" data-name="Tracé 59" d="M30.062,63.436a3.742,3.742,0,0,1-3.743-3.743c0-23.838-10.938-31.673-11.406-31.995a3.767,3.767,0,0,1-.992-5.188,3.727,3.727,0,0,1,5.147-1.041c.6.4,14.734,10.058,14.734,38.224A3.737,3.737,0,0,1,30.062,63.436Z" transform="translate(28.217 48.941)" fill="#8bc34a"/>
      <path id="Tracé_60" data-name="Tracé 60" d="M37.06,24.02c-7.524-6.907-24-6.079-27.787-5.982,4.282,4.447-.011,19.256,8.569,25.021,6.019,4.144,12.428,3.171,15.374-4.93,4.881-.67,7.981-4.851,6.925-9.336A8.746,8.746,0,0,0,37.06,24.02Z" transform="translate(17.209 40.996)" fill="#8bc34a"/>
      <path id="Tracé_61" data-name="Tracé 61" d="M17.843,43c-8.58-5.765-4.286-20.57-8.569-25.021,4.4,1.763,11.747,6.94,24,19.9C30.271,46.169,23.922,46.952,17.843,43Z" transform="translate(17.212 41.052)" fill="#689f38"/>
      <path id="Tracé_62" data-name="Tracé 62" d="M15.471,58.939A3.742,3.742,0,0,1,11.727,55.2c0-13.439-4.425-20.308-4.466-20.375a3.744,3.744,0,0,1,6.2-4.193c.232.344,5.75,8.621,5.75,24.568A3.742,3.742,0,0,1,15.471,58.939Z" transform="translate(9.99 71.297)" fill="#8bc34a"/>
      <path id="Tracé_63" data-name="Tracé 63" d="M48.748,44.846c11.855,9.235,17.762,6.259,23.108-2.965C79.538,28.8,64.669,11.717,67.484,3.014c-5.72,1.924-28.918,9.609-34.435,23.681C28.935,36.57,36.732,47.16,48.748,44.846Z" transform="translate(79.393)" fill="#689f38"/>
      <path id="Tracé_64" data-name="Tracé 64" d="M36.431,44.845c.872,1.711,6.367,5.087,6.367,5.087,3.844,1.714,5.656,1.636,7.131,1.422,4.818-.371,8.808-3.092,11.683-8.059,6.412-10.942-4.38-25.672-6.461-35.3v-.03a13.164,13.164,0,0,1-.3-3.013,6.524,6.524,0,0,1,.318-1.932C50.282,8.007,36.431,44.845,36.431,44.845Z" transform="translate(91.714 0.008)" fill="#8bc34a"/>
      <rect id="Rectangle_6" data-name="Rectangle 6" width="157.222" height="41.177" transform="translate(3 115.263)" fill="#795548"/>
      <circle id="Ellipse_5" data-name="Ellipse 5" cx="4.679" cy="4.679" r="4.679" transform="translate(10.487 122.75)" fill="#bcaaa4"/>
      <circle id="Ellipse_6" data-name="Ellipse 6" cx="4.679" cy="4.679" r="4.679" transform="translate(143.377 122.75)" fill="#bcaaa4"/>
      <circle id="Ellipse_7" data-name="Ellipse 7" cx="4.679" cy="4.679" r="4.679" transform="translate(99.081 122.75)" fill="#bcaaa4"/>
      <circle id="Ellipse_8" data-name="Ellipse 8" cx="4.679" cy="4.679" r="4.679" transform="translate(54.782 122.75)" fill="#bcaaa4"/>
      <circle id="Ellipse_9" data-name="Ellipse 9" cx="4.679" cy="4.679" r="4.679" transform="translate(32.636 139.595)" fill="#bcaaa4"/>
      <circle id="Ellipse_10" data-name="Ellipse 10" cx="4.679" cy="4.679" r="4.679" transform="translate(121.227 139.595)" fill="#bcaaa4"/>
      <circle id="Ellipse_11" data-name="Ellipse 11" cx="4.679" cy="4.679" r="4.679" transform="translate(76.932 139.595)" fill="#bcaaa4"/>
      <path id="Tracé_65" data-name="Tracé 65" d="M6.144,47.593C-.995,40.671,6.709,28.269,3.572,24c6.85.5,18.664,1.1,23.988,9.325,2.748,4.249,1.786,8.932-.913,10.729a7.353,7.353,0,0,1-6.521.715,6.611,6.611,0,0,1-2.939,5.585C14.387,52.223,9.719,51.059,6.144,47.593Z" transform="translate(0.001 57.578)" fill="#8bc34a"/>
      <path id="Tracé_66" data-name="Tracé 66" d="M20.1,44.779a6.518,6.518,0,0,1-2.912,5.585C14.4,52.218,9.73,51.08,6.155,47.591-1.01,40.673,6.728,28.279,3.58,24,6.354,27.77,16.06,33.493,20.1,44.779Z" transform="translate(0.004 57.572)" fill="#689f38"/>
      <path id="Tracé_67" data-name="Tracé 67" d="M49.46,54.179a3.742,3.742,0,0,1-3.743-3.743c0-15.876-9.272-25.391-17.051-30.576a3.744,3.744,0,0,1,4.155-6.229C46.155,22.521,53.2,35.245,53.2,50.435A3.742,3.742,0,0,1,49.46,54.179Z" transform="translate(65.841 27.394)" fill="#8bc34a"/>
      <path id="Tracé_68" data-name="Tracé 68" d="M48.78,14.776C41.525,8.2,25.654,8.985,22,9.075c4.125,4.241-.011,18.35,8.258,23.842,5.8,3.949,11.979,3.021,14.816-4.7,4.7-.64,7.689-4.623,6.674-8.9A8.368,8.368,0,0,0,48.78,14.776Z" transform="translate(52.124 16.422)" fill="#8bc34a"/>
      <path id="Tracé_69" data-name="Tracé 69" d="M30.258,32.862C21.989,27.37,26.125,13.258,22,9.02c4.237,1.681,11.32,6.615,23.13,18.964C42.237,35.882,36.116,36.627,30.258,32.862Z" transform="translate(52.124 16.477)" fill="#689f38"/>
      <path id="Tracé_70" data-name="Tracé 70" d="M39.487,49.916H32C32,40.5,44.312,28.342,52.787,24.1l3.35,6.7C49.171,34.283,39.487,44.563,39.487,49.916Z" transform="translate(79.558 57.861)" fill="#8bc34a"/>
      <path id="Tracé_71" data-name="Tracé 71" d="M40.882,23.563c8.756-6.435,25.107-3.238,28.962-2.28C64.671,25.528,67.415,44.3,57.574,49.355c-6.936,3.41-13.259,1.284-15.127-8.658C34.526,37.391,34.679,28.182,40.882,23.563Z" transform="translate(91.504 45.612)" fill="#8bc34a"/>
      <path id="Tracé_72" data-name="Tracé 72" d="M53.178,48.151c9.583-4.964,7.195-23.568,12.271-28.072-4.833,1.168-12.746,6.7-27.491,19.155,1.962,10.2,8.284,12.331,15.221,8.917Z" transform="translate(95.9 46.816)" fill="#689f38"/>
    </g>
    <g id="icons8_lettuce" transform="translate(69.924 914.081)">
      <path id="Tracé_73" data-name="Tracé 73" d="M70.289,15.848C56.467,15.453,60.021,4,50.543,4S44.619,15.453,30.8,15.848C19.344,16.243,15,35.594,15,35.594l35.543,90.833L86.086,35.594S81.742,16.243,70.289,15.848Z" transform="translate(26.611)" fill="#689f38"/>
      <path id="Tracé_74" data-name="Tracé 74" d="M61.357,157.391c-1.58-9.083,4.344-16.982-3.554-21.721-3.949-2.37-8.688-3.159-12.243-5.924-5.924-3.949-4.344-14.612-5.924-21.721-.395-1.185-.79-2.764-1.58-3.554C36.477,102.5,29.368,99.337,27,98.547a11.541,11.541,0,0,1-9.083-8.293c-1.185-4.344.395-9.083,0-13.427,0-5.529,1.58-7.109-2.37-11.058-2.764-2.37-5.924-3.949-7.9-7.109-3.554-5.529-1.185-15.8,4.739-18.956,3.159-1.58,7.109-1.975,9.478-9.083,1.975-6.319,1.975-8.293,3.949-14.612,1.58-5.134,6.714-8.688,11.848-9.083a11.516,11.516,0,0,1,11.848,7.9c2.37,7.109,1.185,6.714,3.949,11.848,3.159,5.924,15.4,7.5,15.8,19.746,0,4.344-5.924,10.663-4.344,14.217.79,1.58,2.37,2.764,3.949,4.344a18.525,18.525,0,0,1,5.134,15.4c-.395,3.159-1.975,6.319-2.37,9.873-.395,7.109,5.134,12.638,9.478,18.561C91.371,122.638,85.052,133.3,85.052,157,85.052,157.391,61.357,157.391,61.357,157.391Z" transform="translate(0 8.528)" fill="#8bc34a"/>
      <path id="Tracé_75" data-name="Tracé 75" d="M43.99,157.391c1.58-9.083,3.554-16.982,11.453-21.721,3.949-2.37,8.688-3.159,12.243-5.924,5.924-3.949,4.344-14.612,5.924-21.721.395-1.185.79-2.764,1.58-3.554,1.58-1.975,8.688-5.134,11.058-5.924a13.036,13.036,0,0,0,8.688-8.293c1.185-4.344-.395-9.083,0-13.427,0-5.529-1.58-7.109,2.37-11.058,2.764-2.37,5.924-3.949,7.9-7.109,3.554-5.529,1.185-15.8-4.739-18.956-3.159-1.58-7.109-3.949-9.478-9.083-2.764-5.924-1.975-8.293-3.949-14.612-1.58-5.134-6.714-8.688-11.848-9.083a11.516,11.516,0,0,0-11.848,7.9c-2.37,7.109-1.185,6.714-3.949,11.848-3.159,5.924-15.4,7.5-15.8,19.746,0,4.344,5.924,10.663,4.344,14.217-.79,1.58-2.37,2.764-3.949,4.344a18.525,18.525,0,0,0-5.134,15.4c.395,3.159,1.975,6.319,2.37,9.873.395,7.109-5.134,12.638-9.478,18.561C21.48,122.638,19.9,133.3,19.9,157,20.295,157.391,43.99,157.391,43.99,157.391Z" transform="translate(41.062 8.528)" fill="#8bc34a"/>
      <path id="Tracé_76" data-name="Tracé 76" d="M65.276,14.963c-11.058-.395-11.058-7.9-15.4-10.663,3.554,18.167,15.007,16.587,14.217,22.511a11.717,11.717,0,0,1-1.58,4.344,38.245,38.245,0,0,1-3.554,2.764c-4.739,3.159-12.638,8.688-13.033,20.536v0c-.395-11.848-8.293-16.982-13.033-20.536-1.185-.79-3.159-1.975-3.554-2.764-1.185-1.975-1.58-2.37-1.58-4.344-.395-6.319,9.873-4.344,14.217-22.511-5.134,2.764-5.134,10.268-16.192,10.663-3.949,0-6.714,2.37-9.083,5.134.395.79.79,1.975,1.185,2.764,2.37,7.109,1.185,6.714,3.949,11.848,3.159,5.924,15.4,7.5,15.8,19.746,0,4.344-5.924,10.663-4.344,14.217.79,1.58,2.37,2.764,3.949,4.344a18.525,18.525,0,0,1,5.134,15.4c-.395,3.159-1.975,6.319-2.37,9.873a16.372,16.372,0,0,0,1.185,6.319c-13.427,13.822-11.453,42.257-11.058,44.232.79-13.427,3.949-21.721,11.453-31.989a58.048,58.048,0,0,0,3.949-5.134h0c3.159-3.949,5.924-8.293,5.529-13.427,0-3.554-1.58-6.714-2.37-9.873a17.367,17.367,0,0,1,5.134-15.4c1.185-1.185,3.159-2.37,3.949-4.344,1.58-3.949-4.344-10.268-4.344-14.217.395-12.243,12.638-13.822,15.8-19.746,2.764-5.134,1.58-5.134,3.949-11.848.395-.79.79-1.975,1.185-2.764C71.989,17.333,69.225,14.963,65.276,14.963ZM48.294,67.488a19.78,19.78,0,0,0-2.764,3.159,22.575,22.575,0,0,0-2.764-3.159L41.58,66.3c.395-.79.79-1.185.79-1.975,1.58-2.764,3.159-5.924,3.159-9.478,0,3.554,1.58,6.714,3.159,9.478a3.017,3.017,0,0,1,.79,1.975Z" transform="translate(31.624 0.885)" fill="#558b2f"/>
      <path id="Tracé_77" data-name="Tracé 77" d="M41.122,99.029c-.395-.79-.79-1.185-1.185-1.975-1.58-3.159-3.554-6.319-5.529-9.478s-3.949-6.714-5.924-10.268S24.535,70.2,22.956,66.645,19.4,59.537,18.217,55.982a60.238,60.238,0,0,1-3.159-10.268,94.75,94.75,0,0,1-1.58-9.478,64.106,64.106,0,0,1-.395-8.293c-.395-2.37.395-4.344.395-6.319.395-3.554.395-5.529.395-5.529s0,1.975.395,5.529a31.926,31.926,0,0,0,.395,5.924,69.736,69.736,0,0,0,1.58,7.9c.79,2.764,1.58,5.924,2.764,9.083a50.572,50.572,0,0,0,4.344,9.478c1.58,3.159,3.554,6.319,5.529,9.478s4.344,6.319,6.714,9.478,4.739,6.319,7.109,9.083c.79.79,1.185,1.58,1.975,2.37-.395,1.58-1.185,3.554-1.58,5.134v1.58A6.721,6.721,0,0,0,42.7,93.9c0,1.185-.395,2.37-.395,3.554h0C41.517,97.844,41.517,98.634,41.122,99.029Zm19.351,32.384s0-1.975-.395-5.529c-.395-1.975,0-3.159.395-5.134a26.643,26.643,0,0,1,1.185-6.714c.395-1.185.79-2.764,1.185-3.949a30,30,0,0,1,1.58-4.344c1.185-2.764,2.764-5.924,4.344-9.083s3.554-6.319,5.529-9.478,3.949-6.714,5.924-10.268S84.169,69.8,85.749,66.25s3.554-7.109,4.739-10.663a60.236,60.236,0,0,0,3.159-10.268,94.751,94.751,0,0,0,1.58-9.478,61.151,61.151,0,0,0,.395-8.293c.395-2.37-.395-4.344-.395-6.319-.395-3.554-.395-5.529-.395-5.529s0,1.975-.395,5.529a31.928,31.928,0,0,1-.395,5.924,69.74,69.74,0,0,1-1.58,7.9c-.79,2.764-1.58,5.924-2.764,9.083a50.572,50.572,0,0,1-4.344,9.478c-1.58,3.159-3.554,6.319-5.529,9.478s-4.344,6.319-6.714,9.478S68.372,78.888,66,81.652c-2.37,3.159-4.739,5.924-7.109,9.083a62.248,62.248,0,0,0-5.924,9.478l-2.37,4.739a24.158,24.158,0,0,0-1.975,4.739c-1.185,3.159-2.37,5.924-2.764,8.688a29.2,29.2,0,0,0-1.185,7.109q0,5.924,0,5.924Z" transform="translate(20.63 34.506)" fill="#dcedc8"/>
    </g>
    <g id="icons8_lettuce-2" data-name="icons8_lettuce" transform="translate(870.341 480.178)">
      <path id="Tracé_73-2" data-name="Tracé 73" d="M87.777,19.6C69.583,19.075,74.262,4,61.786,4s-7.8,15.075-25.992,15.6C20.718,20.115,15,45.587,15,45.587L61.786,165.15,108.571,45.587S102.853,20.115,87.777,19.6Z" transform="translate(37.881)" fill="#689f38"/>
      <path id="Tracé_74-2" data-name="Tracé 74" d="M78.873,204.994c-2.079-11.956,5.718-22.353-4.679-28.591-5.2-3.119-11.436-4.159-16.115-7.8-7.8-5.2-5.718-19.234-7.8-28.591-.52-1.56-1.04-3.639-2.079-4.679-2.079-2.6-11.436-6.758-14.555-7.8a15.191,15.191,0,0,1-11.956-10.917c-1.56-5.718.52-11.956,0-17.675,0-7.278,2.079-9.357-3.119-14.555-3.639-3.119-7.8-5.2-10.4-9.357C3.5,67.756,6.616,54.241,14.413,50.082c4.159-2.079,9.357-2.6,12.476-11.956,2.6-8.317,2.6-10.917,5.2-19.234,2.079-6.758,8.837-11.436,15.6-11.956a15.158,15.158,0,0,1,15.6,10.4c3.119,9.357,1.56,8.837,5.2,15.6,4.159,7.8,20.274,9.877,20.794,25.992,0,5.718-7.8,14.036-5.718,18.714,1.04,2.079,3.119,3.639,5.2,5.718a24.384,24.384,0,0,1,6.758,20.274c-.52,4.159-2.6,8.317-3.119,13-.52,9.357,6.758,16.635,12.476,24.432,13.516,18.194,5.2,32.23,5.2,63.42C110.064,204.994,78.873,204.994,78.873,204.994Z" transform="translate(0 12.14)" fill="#8bc34a"/>
      <path id="Tracé_75-2" data-name="Tracé 75" d="M51.61,204.994c2.079-11.956,4.679-22.353,15.075-28.591,5.2-3.119,11.436-4.159,16.115-7.8,7.8-5.2,5.718-19.234,7.8-28.591.52-1.56,1.04-3.639,2.079-4.679,2.079-2.6,11.436-6.758,14.555-7.8,5.2-1.56,9.877-5.718,11.436-10.917,1.56-5.718-.52-11.956,0-17.675,0-7.278-2.079-9.357,3.119-14.555,3.639-3.119,7.8-5.2,10.4-9.357,4.679-7.278,1.56-20.794-6.238-24.952-4.159-2.079-9.357-5.2-12.476-11.956-3.639-7.8-2.6-10.917-5.2-19.234-2.079-6.758-8.837-11.436-15.6-11.956a15.158,15.158,0,0,0-15.6,10.4c-3.119,9.357-1.56,8.837-5.2,15.6C67.725,40.725,51.61,42.8,51.09,58.919c0,5.718,7.8,14.036,5.718,18.714-1.04,2.079-3.119,3.639-5.2,5.718a24.384,24.384,0,0,0-6.758,20.274c.52,4.159,2.6,8.317,3.119,13,.52,9.357-6.758,16.635-12.476,24.432-13.516,18.194-15.6,32.23-15.6,63.42C20.42,204.994,51.61,204.994,51.61,204.994Z" transform="translate(58.454 12.14)" fill="#8bc34a"/>
      <path id="Tracé_76-2" data-name="Tracé 76" d="M80.64,18.336C66.085,17.816,66.085,7.939,60.366,4.3,65.045,28.213,80.12,26.133,79.081,33.931A15.423,15.423,0,0,1,77,39.649a50.343,50.343,0,0,1-4.679,3.639C66.085,47.447,55.688,54.724,55.168,70.32v0c-.52-15.6-10.917-22.353-17.155-27.032-1.56-1.04-4.159-2.6-4.679-3.639-1.56-2.6-2.079-3.119-2.079-5.718-.52-8.317,13-5.718,18.714-29.631-6.758,3.639-6.758,13.516-21.313,14.036-5.2,0-8.837,3.119-11.956,6.758.52,1.04,1.04,2.6,1.56,3.639,3.119,9.357,1.56,8.837,5.2,15.6,4.159,7.8,20.274,9.877,20.794,25.992,0,5.718-7.8,14.036-5.718,18.714,1.04,2.079,3.119,3.639,5.2,5.718a24.384,24.384,0,0,1,6.758,20.274c-.52,4.159-2.6,8.317-3.119,13a21.55,21.55,0,0,0,1.56,8.317c-17.675,18.194-15.075,55.623-14.555,58.222,1.04-17.675,5.2-28.591,15.075-42.107,1.56-2.079,3.639-4.159,5.2-6.758h0c4.159-5.2,7.8-10.917,7.278-17.675,0-4.679-2.079-8.837-3.119-13-1.04-7.278,1.04-15.075,6.758-20.274,1.56-1.56,4.159-3.119,5.2-5.718,2.079-5.2-5.718-13.516-5.718-18.714C65.565,54.2,81.68,52.125,85.839,44.328c3.639-6.758,2.079-6.758,5.2-15.6.52-1.04,1.04-2.6,1.56-3.639C89.477,21.455,85.839,18.336,80.64,18.336ZM58.287,87.474a26.036,26.036,0,0,0-3.639,4.159,29.715,29.715,0,0,0-3.639-4.159l-1.56-1.56c.52-1.04,1.04-1.56,1.04-2.6,2.079-3.639,4.159-7.8,4.159-12.476,0,4.679,2.079,8.837,4.159,12.476a3.971,3.971,0,0,1,1.04,2.6Z" transform="translate(45.019 1.26)" fill="#558b2f"/>
      <path id="Tracé_77-2" data-name="Tracé 77" d="M50.026,125.386c-.52-1.04-1.04-1.56-1.56-2.6-2.079-4.159-4.679-8.317-7.278-12.476s-5.2-8.837-7.8-13.516-5.2-9.357-7.278-14.036S21.435,73.4,19.875,68.724a79.291,79.291,0,0,1-4.159-13.516,124.72,124.72,0,0,1-2.079-12.476,84.383,84.383,0,0,1-.52-10.917c-.52-3.119.52-5.718.52-8.317.52-4.679.52-7.278.52-7.278s0,2.6.52,7.278a42.024,42.024,0,0,0,.52,7.8,91.793,91.793,0,0,0,2.079,10.4c1.04,3.639,2.079,7.8,3.639,11.956a66.568,66.568,0,0,0,5.718,12.476c2.079,4.159,4.679,8.317,7.278,12.476s5.718,8.317,8.837,12.476,6.238,8.317,9.357,11.956c1.04,1.04,1.56,2.079,2.6,3.119-.52,2.079-1.56,4.679-2.079,6.758v2.079a8.846,8.846,0,0,0-.52,3.639c0,1.56-.52,3.119-.52,4.679h0C50.546,123.827,50.546,124.866,50.026,125.386ZM75.5,168.013s0-2.6-.52-7.278c-.52-2.6,0-4.159.52-6.758a35.069,35.069,0,0,1,1.56-8.837c.52-1.56,1.04-3.639,1.56-5.2a39.485,39.485,0,0,1,2.079-5.718c1.56-3.639,3.639-7.8,5.718-11.956s4.679-8.317,7.278-12.476,5.2-8.837,7.8-13.516,5.2-9.357,7.278-14.036,4.679-9.357,6.238-14.036a79.288,79.288,0,0,0,4.159-13.516,124.72,124.72,0,0,0,2.079-12.476,80.494,80.494,0,0,0,.52-10.917c.52-3.119-.52-5.718-.52-8.317-.52-4.679-.52-7.278-.52-7.278s0,2.6-.52,7.278a42.026,42.026,0,0,1-.52,7.8,91.8,91.8,0,0,1-2.079,10.4c-1.04,3.639-2.079,7.8-3.639,11.956A66.568,66.568,0,0,1,108.248,65.6c-2.079,4.159-4.679,8.317-7.278,12.476S95.252,86.4,92.133,90.557s-6.238,8.317-9.357,11.956c-3.119,4.159-6.238,7.8-9.357,11.956a81.937,81.937,0,0,0-7.8,12.476L62.5,133.184a31.8,31.8,0,0,0-2.6,6.238c-1.56,4.159-3.119,7.8-3.639,11.436a38.436,38.436,0,0,0-1.56,9.357q0,7.8,0,7.8Z" transform="translate(29.367 49.121)" fill="#dcedc8"/>
    </g>
    <g id="icons8_lettuce-3" data-name="icons8_lettuce" transform="translate(1557.121 862.866)">
      <path id="Tracé_73-3" data-name="Tracé 73" d="M87.777,19.6C69.583,19.075,74.262,4,61.786,4s-7.8,15.075-25.992,15.6C20.718,20.115,15,45.587,15,45.587L61.786,165.15,108.571,45.587S102.853,20.115,87.777,19.6Z" transform="translate(37.881)" fill="#689f38"/>
      <path id="Tracé_74-3" data-name="Tracé 74" d="M78.873,204.994c-2.079-11.956,5.718-22.353-4.679-28.591-5.2-3.119-11.436-4.159-16.115-7.8-7.8-5.2-5.718-19.234-7.8-28.591-.52-1.56-1.04-3.639-2.079-4.679-2.079-2.6-11.436-6.758-14.555-7.8a15.191,15.191,0,0,1-11.956-10.917c-1.56-5.718.52-11.956,0-17.675,0-7.278,2.079-9.357-3.119-14.555-3.639-3.119-7.8-5.2-10.4-9.357C3.5,67.756,6.616,54.241,14.413,50.082c4.159-2.079,9.357-2.6,12.476-11.956,2.6-8.317,2.6-10.917,5.2-19.234,2.079-6.758,8.837-11.436,15.6-11.956a15.158,15.158,0,0,1,15.6,10.4c3.119,9.357,1.56,8.837,5.2,15.6,4.159,7.8,20.274,9.877,20.794,25.992,0,5.718-7.8,14.036-5.718,18.714,1.04,2.079,3.119,3.639,5.2,5.718a24.384,24.384,0,0,1,6.758,20.274c-.52,4.159-2.6,8.317-3.119,13-.52,9.357,6.758,16.635,12.476,24.432,13.516,18.194,5.2,32.23,5.2,63.42C110.064,204.994,78.873,204.994,78.873,204.994Z" transform="translate(0 12.14)" fill="#8bc34a"/>
      <path id="Tracé_75-3" data-name="Tracé 75" d="M51.61,204.994c2.079-11.956,4.679-22.353,15.075-28.591,5.2-3.119,11.436-4.159,16.115-7.8,7.8-5.2,5.718-19.234,7.8-28.591.52-1.56,1.04-3.639,2.079-4.679,2.079-2.6,11.436-6.758,14.555-7.8,5.2-1.56,9.877-5.718,11.436-10.917,1.56-5.718-.52-11.956,0-17.675,0-7.278-2.079-9.357,3.119-14.555,3.639-3.119,7.8-5.2,10.4-9.357,4.679-7.278,1.56-20.794-6.238-24.952-4.159-2.079-9.357-5.2-12.476-11.956-3.639-7.8-2.6-10.917-5.2-19.234-2.079-6.758-8.837-11.436-15.6-11.956a15.158,15.158,0,0,0-15.6,10.4c-3.119,9.357-1.56,8.837-5.2,15.6C67.725,40.725,51.61,42.8,51.09,58.919c0,5.718,7.8,14.036,5.718,18.714-1.04,2.079-3.119,3.639-5.2,5.718a24.384,24.384,0,0,0-6.758,20.274c.52,4.159,2.6,8.317,3.119,13,.52,9.357-6.758,16.635-12.476,24.432-13.516,18.194-15.6,32.23-15.6,63.42C20.42,204.994,51.61,204.994,51.61,204.994Z" transform="translate(58.454 12.14)" fill="#8bc34a"/>
      <path id="Tracé_76-3" data-name="Tracé 76" d="M80.64,18.336C66.085,17.816,66.085,7.939,60.366,4.3,65.045,28.213,80.12,26.133,79.081,33.931A15.423,15.423,0,0,1,77,39.649a50.343,50.343,0,0,1-4.679,3.639C66.085,47.447,55.688,54.724,55.168,70.32v0c-.52-15.6-10.917-22.353-17.155-27.032-1.56-1.04-4.159-2.6-4.679-3.639-1.56-2.6-2.079-3.119-2.079-5.718-.52-8.317,13-5.718,18.714-29.631-6.758,3.639-6.758,13.516-21.313,14.036-5.2,0-8.837,3.119-11.956,6.758.52,1.04,1.04,2.6,1.56,3.639,3.119,9.357,1.56,8.837,5.2,15.6,4.159,7.8,20.274,9.877,20.794,25.992,0,5.718-7.8,14.036-5.718,18.714,1.04,2.079,3.119,3.639,5.2,5.718a24.384,24.384,0,0,1,6.758,20.274c-.52,4.159-2.6,8.317-3.119,13a21.55,21.55,0,0,0,1.56,8.317c-17.675,18.194-15.075,55.623-14.555,58.222,1.04-17.675,5.2-28.591,15.075-42.107,1.56-2.079,3.639-4.159,5.2-6.758h0c4.159-5.2,7.8-10.917,7.278-17.675,0-4.679-2.079-8.837-3.119-13-1.04-7.278,1.04-15.075,6.758-20.274,1.56-1.56,4.159-3.119,5.2-5.718,2.079-5.2-5.718-13.516-5.718-18.714C65.565,54.2,81.68,52.125,85.839,44.328c3.639-6.758,2.079-6.758,5.2-15.6.52-1.04,1.04-2.6,1.56-3.639C89.477,21.455,85.839,18.336,80.64,18.336ZM58.287,87.474a26.036,26.036,0,0,0-3.639,4.159,29.715,29.715,0,0,0-3.639-4.159l-1.56-1.56c.52-1.04,1.04-1.56,1.04-2.6,2.079-3.639,4.159-7.8,4.159-12.476,0,4.679,2.079,8.837,4.159,12.476a3.971,3.971,0,0,1,1.04,2.6Z" transform="translate(45.019 1.26)" fill="#558b2f"/>
      <path id="Tracé_77-3" data-name="Tracé 77" d="M50.026,125.386c-.52-1.04-1.04-1.56-1.56-2.6-2.079-4.159-4.679-8.317-7.278-12.476s-5.2-8.837-7.8-13.516-5.2-9.357-7.278-14.036S21.435,73.4,19.875,68.724a79.291,79.291,0,0,1-4.159-13.516,124.72,124.72,0,0,1-2.079-12.476,84.383,84.383,0,0,1-.52-10.917c-.52-3.119.52-5.718.52-8.317.52-4.679.52-7.278.52-7.278s0,2.6.52,7.278a42.024,42.024,0,0,0,.52,7.8,91.793,91.793,0,0,0,2.079,10.4c1.04,3.639,2.079,7.8,3.639,11.956a66.568,66.568,0,0,0,5.718,12.476c2.079,4.159,4.679,8.317,7.278,12.476s5.718,8.317,8.837,12.476,6.238,8.317,9.357,11.956c1.04,1.04,1.56,2.079,2.6,3.119-.52,2.079-1.56,4.679-2.079,6.758v2.079a8.846,8.846,0,0,0-.52,3.639c0,1.56-.52,3.119-.52,4.679h0C50.546,123.827,50.546,124.866,50.026,125.386ZM75.5,168.013s0-2.6-.52-7.278c-.52-2.6,0-4.159.52-6.758a35.069,35.069,0,0,1,1.56-8.837c.52-1.56,1.04-3.639,1.56-5.2a39.485,39.485,0,0,1,2.079-5.718c1.56-3.639,3.639-7.8,5.718-11.956s4.679-8.317,7.278-12.476,5.2-8.837,7.8-13.516,5.2-9.357,7.278-14.036,4.679-9.357,6.238-14.036a79.288,79.288,0,0,0,4.159-13.516,124.72,124.72,0,0,0,2.079-12.476,80.494,80.494,0,0,0,.52-10.917c.52-3.119-.52-5.718-.52-8.317-.52-4.679-.52-7.278-.52-7.278s0,2.6-.52,7.278a42.026,42.026,0,0,1-.52,7.8,91.8,91.8,0,0,1-2.079,10.4c-1.04,3.639-2.079,7.8-3.639,11.956A66.568,66.568,0,0,1,108.248,65.6c-2.079,4.159-4.679,8.317-7.278,12.476S95.252,86.4,92.133,90.557s-6.238,8.317-9.357,11.956c-3.119,4.159-6.238,7.8-9.357,11.956a81.937,81.937,0,0,0-7.8,12.476L62.5,133.184a31.8,31.8,0,0,0-2.6,6.238c-1.56,4.159-3.119,7.8-3.639,11.436a38.436,38.436,0,0,0-1.56,9.357q0,7.8,0,7.8Z" transform="translate(29.367 49.121)" fill="#dcedc8"/>
    </g>
    <g id="icons8_parsley" transform="translate(688.547 893.5)">
      <path id="Tracé_78" data-name="Tracé 78" d="M59.553,41.25c-.278,0-.538.068-.812.087a14.359,14.359,0,0,0,.812-4.649C59.553,29.127,53.786,23,46.669,23A13.077,13.077,0,0,0,34.108,33.722a37.687,37.687,0,0,0-11.055-1.6C10.013,32.125,4,38.252,4,45.813S10.013,59.5,23.053,59.5c1.008,0,1.994-.05,2.97-.119a14.392,14.392,0,0,0-.821,4.681c0,7.56,5.767,13.688,12.885,13.688,6.816,0,12.332-5.639,12.793-12.757a12.381,12.381,0,0,0,8.673,3.632c7.118,0,12.884-6.127,12.884-13.687S66.671,41.25,59.553,41.25Z" transform="translate(0 67.688)" fill="#2e7d32"/>
      <path id="Tracé_79" data-name="Tracé 79" d="M77.6,28.209a4.4,4.4,0,0,1-2.582-3.659C73.337,10.333,63.906,4,52.5,4S31.663,10.333,29.984,24.554A4.406,4.406,0,0,1,27.4,28.213c-9.289,3.764-14.8,14.869-9.07,26.189,3.007,5.945,9.549,8.514,16.2,8.92a4.562,4.562,0,0,1-.283,9.116V72.6c-7.729.8-13.687,5.5-13.687,11.242,0,6.059,6.638,10.968,14.992,11.338a9,9,0,0,0-1.3,4.631,9.132,9.132,0,0,0,17.981,2.254c1.045-4.339-.5-4.339.543,0A9.129,9.129,0,0,0,70.75,99.813a9,9,0,0,0-1.3-4.631c8.354-.37,14.992-5.279,14.992-11.338,0-5.74-5.959-10.444-13.687-11.242v-.164a4.562,4.562,0,0,1-.283-9.116c6.652-.406,13.195-2.975,16.2-8.92C92.394,43.078,86.883,31.973,77.6,28.209Z" transform="translate(42.75)" fill="#2e7d32"/>
      <path id="Tracé_80" data-name="Tracé 80" d="M27.563,140.188A4.561,4.561,0,0,1,23,135.625V21.563a4.563,4.563,0,0,1,9.125,0V135.625A4.561,4.561,0,0,1,27.563,140.188Z" transform="translate(67.688 46.313)" fill="#43a047"/>
      <path id="Tracé_81" data-name="Tracé 81" d="M73.87,85.031a4.57,4.57,0,0,1-4.453-3.572C65.288,62.871,43.931,37.125,14.563,37.125a4.563,4.563,0,0,1,0-9.125c35.7,0,59.153,30.719,63.77,51.479a4.568,4.568,0,0,1-3.467,5.443A4.645,4.645,0,0,1,73.87,85.031Z" transform="translate(21.375 85.5)" fill="#43a047"/>
      <path id="Tracé_82" data-name="Tracé 82" d="M78.385,32.125a37.787,37.787,0,0,0-11.059,1.6A13.077,13.077,0,0,0,54.764,23C47.651,23,41.88,29.127,41.88,36.688a14.316,14.316,0,0,0,.812,4.649c-.269-.018-.529-.087-.808-.087C34.767,41.25,29,47.377,29,54.938s5.767,13.688,12.884,13.688a12.4,12.4,0,0,0,8.678-3.632c.456,7.118,5.977,12.757,12.789,12.757,7.113,0,12.885-6.127,12.885-13.687a14.274,14.274,0,0,0-.826-4.681c.976.068,1.962.119,2.975.119,13.04,0,19.053-6.127,19.053-13.687S91.424,32.125,78.385,32.125Z" transform="translate(89.063 67.688)" fill="#2e7d32"/>
      <path id="Tracé_83" data-name="Tracé 83" d="M27.57,85.031a4.645,4.645,0,0,1-.995-.109,4.568,4.568,0,0,1-3.467-5.443C27.725,58.719,51.181,28,86.878,28a4.563,4.563,0,0,1,0,9.125c-29.369,0-50.726,25.746-54.855,44.334A4.57,4.57,0,0,1,27.57,85.031Z" transform="translate(67.685 85.5)" fill="#43a047"/>
    </g>
    <g id="icons8_parsley-2" data-name="icons8_parsley" transform="translate(1553 522.476)">
      <path id="Tracé_78-2" data-name="Tracé 78" d="M59.553,41.25c-.278,0-.538.068-.812.087a14.359,14.359,0,0,0,.812-4.649C59.553,29.127,53.786,23,46.669,23A13.077,13.077,0,0,0,34.108,33.722a37.687,37.687,0,0,0-11.055-1.6C10.013,32.125,4,38.252,4,45.813S10.013,59.5,23.053,59.5c1.008,0,1.994-.05,2.97-.119a14.392,14.392,0,0,0-.821,4.681c0,7.56,5.767,13.688,12.885,13.688,6.816,0,12.332-5.639,12.793-12.757a12.381,12.381,0,0,0,8.673,3.632c7.118,0,12.884-6.127,12.884-13.687S66.671,41.25,59.553,41.25Z" transform="translate(0 67.688)" fill="#2e7d32"/>
      <path id="Tracé_79-2" data-name="Tracé 79" d="M77.6,28.209a4.4,4.4,0,0,1-2.582-3.659C73.337,10.333,63.906,4,52.5,4S31.663,10.333,29.984,24.554A4.406,4.406,0,0,1,27.4,28.213c-9.289,3.764-14.8,14.869-9.07,26.189,3.007,5.945,9.549,8.514,16.2,8.92a4.562,4.562,0,0,1-.283,9.116V72.6c-7.729.8-13.687,5.5-13.687,11.242,0,6.059,6.638,10.968,14.992,11.338a9,9,0,0,0-1.3,4.631,9.132,9.132,0,0,0,17.981,2.254c1.045-4.339-.5-4.339.543,0A9.129,9.129,0,0,0,70.75,99.813a9,9,0,0,0-1.3-4.631c8.354-.37,14.992-5.279,14.992-11.338,0-5.74-5.959-10.444-13.687-11.242v-.164a4.562,4.562,0,0,1-.283-9.116c6.652-.406,13.195-2.975,16.2-8.92C92.394,43.078,86.883,31.973,77.6,28.209Z" transform="translate(42.75)" fill="#2e7d32"/>
      <path id="Tracé_80-2" data-name="Tracé 80" d="M27.563,140.188A4.561,4.561,0,0,1,23,135.625V21.563a4.563,4.563,0,0,1,9.125,0V135.625A4.561,4.561,0,0,1,27.563,140.188Z" transform="translate(67.688 46.313)" fill="#43a047"/>
      <path id="Tracé_81-2" data-name="Tracé 81" d="M73.87,85.031a4.57,4.57,0,0,1-4.453-3.572C65.288,62.871,43.931,37.125,14.563,37.125a4.563,4.563,0,0,1,0-9.125c35.7,0,59.153,30.719,63.77,51.479a4.568,4.568,0,0,1-3.467,5.443A4.645,4.645,0,0,1,73.87,85.031Z" transform="translate(21.375 85.5)" fill="#43a047"/>
      <path id="Tracé_82-2" data-name="Tracé 82" d="M78.385,32.125a37.787,37.787,0,0,0-11.059,1.6A13.077,13.077,0,0,0,54.764,23C47.651,23,41.88,29.127,41.88,36.688a14.316,14.316,0,0,0,.812,4.649c-.269-.018-.529-.087-.808-.087C34.767,41.25,29,47.377,29,54.938s5.767,13.688,12.884,13.688a12.4,12.4,0,0,0,8.678-3.632c.456,7.118,5.977,12.757,12.789,12.757,7.113,0,12.885-6.127,12.885-13.687a14.274,14.274,0,0,0-.826-4.681c.976.068,1.962.119,2.975.119,13.04,0,19.053-6.127,19.053-13.687S91.424,32.125,78.385,32.125Z" transform="translate(89.063 67.688)" fill="#2e7d32"/>
      <path id="Tracé_83-2" data-name="Tracé 83" d="M27.57,85.031a4.645,4.645,0,0,1-.995-.109,4.568,4.568,0,0,1-3.467-5.443C27.725,58.719,51.181,28,86.878,28a4.563,4.563,0,0,1,0,9.125c-29.369,0-50.726,25.746-54.855,44.334A4.57,4.57,0,0,1,27.57,85.031Z" transform="translate(67.685 85.5)" fill="#43a047"/>
    </g>
    <path id="icons8_vegetarian_mark" d="M130.83,4.587C120.77,8.611,106.352,6.6,95.286,15.653S81.2,30.407,81.2,44.155c0,3.689.671,7.042,1.341,6.371a18.229,18.229,0,0,1,1.341-2.683C91.933,29.065,108.7,23.03,108.7,24.036c0,.335-6.036,6.706-12.407,16.1C76.173,69.3,66.784,114.908,66.113,115.243S58.065,76.01,45.994,50.861C41.97,41.137,26.545,17.329,6.761,6.934,3.408,5.928,3.072,6.6,5.755,9.617c11.736,13.413,17.1,20.119,25.82,37.221C51.694,87.747,58.736,146.428,62.089,147.1a43.942,43.942,0,0,0,9.389,0c2.012-.671,7.377-51.3,27.5-90.2a23.345,23.345,0,0,1,5.7-1.341c10.395-1.677,16.766-3.689,24.814-13.748s3.689-22.8,8.048-32.862c.671-2.683,1.677-4.024,1.006-5.03C137.536,2.24,133.848,3.246,130.83,4.587Z" transform="translate(645.033 549.962)" fill="#388e3c"/>
    <rect id="Rectangle_7" data-name="Rectangle 7" width="1920" height="153" transform="translate(0 745)" fill="#b4b07a"/>
    <g id="icons8_cloud_2" transform="translate(207 132)" opacity="0.7">
      <path id="Tracé_89" data-name="Tracé 89" d="M58.8,9a48.8,48.8,0,1,0,48.8,48.8A48.8,48.8,0,0,0,58.8,9Z" transform="translate(28.448)" fill="#bbdefb"/>
      <path id="Tracé_90" data-name="Tracé 90" d="M52.189,25A40.189,40.189,0,1,0,92.379,65.189,40.189,40.189,0,0,0,52.189,25Z" transform="translate(37.931 75.861)" fill="#bbdefb"/>
      <path id="Tracé_91" data-name="Tracé 91" d="M44.189,19A40.189,40.189,0,1,0,84.379,59.189,40.189,40.189,0,0,0,44.189,19Zm155.016,0a34.448,34.448,0,1,0,34.448,34.448A34.448,34.448,0,0,0,199.205,19Z" transform="translate(0 47.413)" fill="#bbdefb"/>
      <path id="Tracé_92" data-name="Tracé 92" d="M58.448,24A34.448,34.448,0,1,0,92.9,58.448,34.448,34.448,0,0,0,58.448,24Z" transform="translate(94.827 71.12)" fill="#bbdefb"/>
      <path id="Tracé_93" data-name="Tracé 93" d="M61.319,12A37.319,37.319,0,1,0,98.637,49.319,37.319,37.319,0,0,0,61.319,12Z" transform="translate(94.827 14.224)" fill="#bbdefb"/>
      <path id="Tracé_94" data-name="Tracé 94" d="M56.189,17A40.189,40.189,0,1,0,96.379,57.189,40.189,40.189,0,0,0,56.189,17Z" transform="translate(56.896 37.931)" fill="#bbdefb"/>
    </g>
    <g id="icons8_clouds" transform="translate(712.399 48.785)" opacity="0.71">
      <path id="Tracé_95" data-name="Tracé 95" d="M63.9,12a42.9,42.9,0,1,0,42.9,42.9A42.9,42.9,0,0,0,63.9,12Z" transform="translate(68.793 0)" fill="#bbdefb"/>
      <path id="Tracé_96" data-name="Tracé 96" d="M170.539,21.893a35.326,35.326,0,1,0,35.326,35.326A35.326,35.326,0,0,0,170.539,21.893Zm-131.213.54A35.326,35.326,0,1,0,74.653,57.759,35.327,35.327,0,0,0,39.326,22.433Z" transform="translate(0 40.033)" fill="#bbdefb"/>
      <path id="Tracé_97" data-name="Tracé 97" d="M43.8,15a32.8,32.8,0,1,0,32.8,32.8A32.8,32.8,0,0,0,43.8,15Z" transform="translate(28.326 12.14)" fill="#bbdefb"/>
      <path id="Tracé_98" data-name="Tracé 98" d="M53.326,19.893A35.326,35.326,0,1,0,88.653,55.219,35.326,35.326,0,0,0,53.326,19.893Z" transform="translate(56.653 31.94)" fill="#bbdefb"/>
      <path id="Tracé_99" data-name="Tracé 99" d="M7,52.233A20.187,20.187,0,0,0,27.187,72.42H153.353a20.187,20.187,0,0,0,20.187-20.187V47.187A20.187,20.187,0,0,0,153.353,27H27.187A20.187,20.187,0,0,0,7,47.187Z" transform="translate(12.14 60.7)" fill="#bbdefb"/>
    </g>
    <g id="icons8_onedrive" transform="translate(1151 58.456)" opacity="0.6">
      <path id="Tracé_100" data-name="Tracé 100" d="M140.372,99.141s13.42-1.825,16.114-14.79a23.321,23.321,0,0,0,.469-4.769,22.638,22.638,0,0,0-.2-3.088c-1.987-14.665-17.888-17.962-17.888-17.962s2.763-15.793-11.809-24.068-27.885,0-27.885,0S91.376,18.67,70.275,18.67C43.142,18.67,38.619,49.5,38.619,49.5S13,51.018,13,73.572,36.362,99.145,36.362,99.145l104.009,0Z" transform="translate(32.793 24.303)" fill="#1565c0"/>
      <path id="Tracé_101" data-name="Tracé 101" d="M36.506,97.876c0-20.409,15.259-29.344,27.282-32.25,4.17-13.717,15.714-31.939,39.286-31.939.028,0,.051,0,.079,0s.06,0,.093,0c16.355,0,26.516,7.644,32,13.713a38.717,38.717,0,0,1,10.9-1.593c.019,0,.033,0,.051,0h.046c.093,0,.181.019.274.019C146.7,44.506,143.6,12,106.222,12,80.667,12,71.645,33.784,71.645,33.784S53.107,20.015,34.068,39.045c-9.775,9.77-7.518,24.788-7.518,24.788S4,66.09,4,90.13c0,21.779,23.3,24.031,23.3,24.031H40.337A34.377,34.377,0,0,1,36.506,97.876Z" transform="translate(0 0)" fill="#1565c0"/>
    </g>
    <g id="icons8_smiling_sun" transform="translate(1644.25 21.24)">
      <rect id="Rectangle_8" data-name="Rectangle 8" width="142" height="142" transform="translate(34 33.88)" fill="#ff9800"/>
      <rect id="Rectangle_9" data-name="Rectangle 9" width="142.751" height="142.751" transform="matrix(0.707, -0.707, 0.707, 0.707, 4, 104.942)" fill="#ff9800"/>
      <path id="Tracé_102" data-name="Tracé 102" d="M11.778,73.463A61.685,61.685,0,1,0,73.463,11.778,61.672,61.672,0,0,0,11.778,73.463" transform="translate(31.477 31.477)" fill="#ffeb3b"/>
      <path id="Tracé_103" data-name="Tracé 103" d="M18.445,26.222H74.523a28.74,28.74,0,0,1-56.078,0Z" transform="translate(58.459 89.933)" fill="#ff9800"/>
      <path id="Tracé_104" data-name="Tracé 104" d="M38.062,35.027a4.859,4.859,0,0,1-4.24-2.478c-1.676-2.978-3.942-3.129-4.2-3.134-2.367,0-4.144,3.1-4.164,3.139A4.855,4.855,0,1,1,17,27.784c.757-1.348,4.941-8.08,12.643-8.08,1.353,0,8.318.389,12.648,8.085a4.853,4.853,0,0,1-4.229,7.237Z" transform="translate(50.062 63.554)" fill="#ff9800"/>
      <path id="Tracé_105" data-name="Tracé 105" d="M48.062,35.027a4.859,4.859,0,0,1-4.24-2.478c-1.676-2.978-3.942-3.129-4.2-3.134-2.367,0-4.144,3.1-4.164,3.139A4.855,4.855,0,1,1,27,27.784c.757-1.348,4.941-8.08,12.643-8.08,1.353,0,8.318.389,12.648,8.085a4.853,4.853,0,0,1-4.229,7.237Z" transform="translate(90.533 63.554)" fill="#ff9800"/>
    </g>
  </g>
</svg>
