<svg xmlns="http://www.w3.org/2000/svg" width="201" height="141" viewBox="0 0 201 141">
  <g id="Groupe_33" data-name="Groupe 33" transform="translate(-2052 -2972)">
    <g id="Polygone_1" data-name="Polygone 1" transform="translate(2052 3051)" fill="none">
      <path d="M53.25,0,71,31,53.25,62H17.75L0,31,17.75,0Z" stroke="none"/>
      <path d="M 20.64870452880859 5 L 5.761611938476562 30.9999885559082 L 20.6486930847168 57 L 50.35128021240234 57 L 65.23838806152344 31 L 50.35128021240234 5 L 20.64870452880859 5 M 17.75 0 L 53.24998474121094 0 L 71 31 L 53.24998474121094 62 L 17.74998474121094 62 L 0 30.99998664855957 L 17.75 0 Z" stroke="none" fill="#f07547"/>
    </g>
    <g id="Polygone_2" data-name="Polygone 2" transform="translate(2117 3011)" fill="none">
      <path d="M53.25,0,71,31,53.25,62H17.75L0,31,17.75,0Z" stroke="none"/>
      <path d="M 20.64870452880859 5 L 5.761611938476562 30.9999885559082 L 20.6486930847168 57 L 50.35128021240234 57 L 65.23838806152344 31 L 50.35128021240234 5 L 20.64870452880859 5 M 17.75 0 L 53.24998474121094 0 L 71 31 L 53.24998474121094 62 L 17.74998474121094 62 L 0 30.99998664855957 L 17.75 0 Z" stroke="none" fill="#fff"/>
    </g>
    <g id="Polygone_3" data-name="Polygone 3" transform="translate(2182 2972)" fill="none">
      <path d="M53.25,0,71,31,53.25,62H17.75L0,31,17.75,0Z" stroke="none"/>
      <path d="M 20.64870452880859 5 L 5.761611938476562 30.9999885559082 L 20.6486930847168 57 L 50.35128021240234 57 L 65.23838806152344 31 L 50.35128021240234 5 L 20.64870452880859 5 M 17.75 0 L 53.24998474121094 0 L 71 31 L 53.24998474121094 62 L 17.74998474121094 62 L 0 30.99998664855957 L 17.75 0 Z" stroke="none" fill="#d84b53"/>
    </g>
  </g>
</svg>
