<svg xmlns="http://www.w3.org/2000/svg" width="129.719" height="146.201" viewBox="0 0 129.719 146.201">
  <g id="icons8_running_rabbit" transform="translate(-19.239 -6)">
    <path id="Tracé_2" data-name="Tracé 2" d="M35.993,120.863a6.085,6.085,0,0,1,6.9-9.8c.146.073,19.659-30.4,19.659-30.4L86.96,74.171C82.9,86.339,54.573,116.117,54.573,116.117c-6.392,6.579-11.551,8.432-16.828,5.966A6.02,6.02,0,0,1,35.993,120.863ZM73.015,26.409a17.8,17.8,0,0,1,6.274-6.473H79.3a38.1,38.1,0,0,0-4.514-2.547C52.643,6.316,27.05,9.342,25.7,9.37A7.863,7.863,0,0,0,18,17.389a8.045,8.045,0,0,0,8.023,7.921c.3-.008,27.584-6.214,45.872.333A8.217,8.217,0,0,1,73.015,26.409Z" transform="translate(33.614 9.08)" fill="#b0bec5"/>
    <path id="Tracé_3" data-name="Tracé 3" d="M27.415,30.638c-.475-.166-.949-.333-1.42-.539a23.148,23.148,0,0,1-7.386-5.07,21.767,21.767,0,0,1-4.174-5.982,12.459,12.459,0,0,0-4.064,7.248c-2.807,16.6,11.742,25.2,19.854,25.2l.353-.02A29.088,29.088,0,0,1,27.415,30.638Z" transform="translate(9.222 39.866)" fill="#145f80"/>
    <path id="Tracé_4" data-name="Tracé 4" d="M92.264,70.4C76.75,82.233,55.278,86.828,37.015,79.938,18.755,73.063,8.36,56.19,15.243,37.931a35.334,35.334,0,0,1,45.531-20.6c2.105.791,12.5,4.717,18.037,6.806,2.758,1.042,7.146-.742,8.278-3.752C110.021,19.1,126.415,32.386,92.264,70.4Z" transform="translate(18.656 27.649)"/>
    <path id="Tracé_5" data-name="Tracé 5" d="M74.476,46.848c-3.082,9.43-21.752,2.3-31.149-.795A17.966,17.966,0,0,1,54.488,11.9C63.882,14.993,80.052,29.772,74.476,46.848Z" transform="translate(73.341 15.276)" fill="#145f80"/>
    <path id="Tracé_6" data-name="Tracé 6" d="M73.186,29.016h0l-.024.012a17.806,17.806,0,0,1,8.9-2.673c-.734-.726-2.3-1.764-5.289-3.942C56.788,7.82,29.986,6.165,28.644,6.039a7.872,7.872,0,0,0-8.607,7.033,8.62,8.62,0,0,0,1.253,5.252c6.242-.45,28.111-1.493,47.381,8.144A38.1,38.1,0,0,1,73.186,29.016Z" transform="translate(39.726)" fill="#145f80"/>
    <path id="Tracé_7" data-name="Tracé 7" d="M52.224,22.159H44.112C38.7,22.159,36,14.047,36,14.047h8.112C49.522,14.047,52.224,22.159,52.224,22.159Z" transform="translate(88.621 24.589)" fill="#455a64"/>
    <path id="Tracé_8" data-name="Tracé 8" d="M41.056,14.047A4.056,4.056,0,1,0,45.112,18.1a4.056,4.056,0,0,0-4.056-4.056Z" transform="translate(91.677 24.589)"/>
    <path id="Tracé_9" data-name="Tracé 9" d="M62.556,97.983l8.112,7.9H82.835v-3.865s0-8.112-8.112-8.112ZM50.116,24.466c26.128,14.5,20.551,53.724-10.038,63.021,0,0,7.268-19.436-11.462-26.716-12.679-4.928-19.294-17.246-10.7-29.377A24.235,24.235,0,0,1,50.116,24.466Z" transform="translate(21.506 46.127)" fill="#145f80"/>
    <path id="Tracé_10" data-name="Tracé 10" d="M51.048,82.727l4.238-2.137c2.328-3.821,6.352-4.989,2.523-7.325l-24.1-15.307c-3.829-2.32,5.926-29.223,5.926-29.223l-19.18,35.4Z" transform="translate(41.126 69.474)" fill="#90a4ae"/>
  </g>
</svg>
