<?xml version="1.0" encoding="utf-8"?>
<svg xmlns="http://www.w3.org/2000/svg" viewBox="0 0 24 24" width="192" height="192">
  <path d="M9.879,10.121c0.586,0.586,6.414,6.414,7,7c1.172,1.172,3.071,1.172,4.243,0c1.172-1.172,1.172-3.071,0-4.243c-0.586-0.586-6.414-6.414-7-7c-1.172-1.172-3.071-1.172-4.243,0C8.707,7.05,8.707,8.95,9.879,10.121z" opacity=".35" fill="#FFFFFF" />
  <path d="M9.879,5.879c-0.586,0.586-6.414,6.414-7,7c-1.172,1.172-1.172,3.071,0,4.243c1.172,1.172,3.071,1.172,4.243,0c0.586-0.586,6.414-6.414,7-7c1.172-1.172,1.172-3.071,0-4.243C12.95,4.707,11.05,4.707,9.879,5.879z" fill="#FFFFFF" />
</svg>