<?xml version="1.0" encoding="utf-8"?>
<svg xmlns="http://www.w3.org/2000/svg" viewBox="0 0 24 24" width="192" height="192">
  <path d="M14.121,13.879c-0.586-0.586-6.414-6.414-7-7c-1.172-1.172-3.071-1.172-4.243,0c-1.172,1.172-1.172,3.071,0,4.243c0.586,0.586,6.414,6.414,7,7c1.172,1.172,3.071,1.172,4.243,0C15.293,16.95,15.293,15.05,14.121,13.879z" opacity=".35" fill="#FFFFFF" />
  <path d="M14.121,18.121c0.586-0.586,6.414-6.414,7-7c1.172-1.172,1.172-3.071,0-4.243c-1.172-1.172-3.071-1.172-4.243,0c-0.586,0.586-6.414,6.414-7,7c-1.172,1.172-1.172,3.071,0,4.243C11.05,19.293,12.95,19.293,14.121,18.121z" fill="#FFFFFF" />
</svg>