<svg xmlns="http://www.w3.org/2000/svg" width="32.806" height="36.429" viewBox="0 0 32.806 36.429">
  <path id="like" d="M19.579,1.724c1.551,2.59.169,5.7-.695,8.633s-.169,4.836,2.765,4.492c3.8-.351,5.18-1.039,8.114-1.039,3.109,0,3.8,1.039,3.973,1.9.169,1.207-.519,1.9-.519,2.59s2.59,1.032,2.59,3.278c0,2.415-2.071,2.246-2.071,2.934s1.727,1.039,1.727,2.934-2.421,2.078-2.421,2.941.863,1.032.863,2.239-2.415,3.8-11.048,3.8C8.18,36.257,9.907,32.8,3,32.8V19.854c3.629,0,3.453-3.109,5.868-5.524A31.246,31.246,0,0,0,15.431,1.724C16.125-1.21,18.715.173,19.579,1.724Z" transform="translate(-3 -0.004)" fill="#1260c6"/>
</svg>
