<svg id="icons8_turtle" xmlns="http://www.w3.org/2000/svg" xmlns:xlink="http://www.w3.org/1999/xlink" width="162.216" height="101.385" viewBox="0 0 162.216 101.385">
  <defs>
    <linearGradient id="linear-gradient" x1="0.506" y1="0.413" x2="0.557" y2="-0.289" gradientUnits="objectBoundingBox">
      <stop offset="0.411" stop-color="#1a3d0a" stop-opacity="0"/>
      <stop offset="1" stop-color="#1a3d0a"/>
    </linearGradient>
    <radialGradient id="radial-gradient" cx="1.447" cy="-0.603" r="1.764" gradientTransform="matrix(-1.138, 0, 0, 1, 3.224, 0)" gradientUnits="objectBoundingBox">
      <stop offset="0.736" stop-color="#1a3d0a" stop-opacity="0"/>
      <stop offset="1" stop-color="#1a3d0a"/>
    </radialGradient>
    <radialGradient id="radial-gradient-2" cx="0.81" cy="-0.199" r="2.412" gradientTransform="matrix(-0.798, 0, 0, 1, 1.395, 0)" gradientUnits="objectBoundingBox">
      <stop offset="0.245" stop-color="#224f0b"/>
      <stop offset="0.379" stop-color="#285b0e"/>
      <stop offset="0.621" stop-color="#377b16"/>
      <stop offset="0.942" stop-color="#4fae23"/>
      <stop offset="1" stop-color="#54b825"/>
    </radialGradient>
    <radialGradient id="radial-gradient-3" cx="0.187" cy="0.307" r="1.4" gradientTransform="matrix(-0.881, 0, 0, 1, 0.389, 0)" xlink:href="#radial-gradient-2"/>
    <radialGradient id="radial-gradient-4" cx="0.495" cy="-3.283" r="4.244" gradientTransform="matrix(-0.006, 1, 0.253, 0.014, 1.329, -3.73)" gradientUnits="objectBoundingBox">
      <stop offset="0.933" stop-color="#1b3b28"/>
      <stop offset="1" stop-color="#418f62"/>
    </radialGradient>
    <radialGradient id="radial-gradient-5" cx="0.092" cy="0.607" r="0.92" gradientTransform="matrix(-0.916, 0, 0, 1, 0.21, 0)" gradientUnits="objectBoundingBox">
      <stop offset="0" stop-color="#307012"/>
      <stop offset="0.611" stop-color="#54b825"/>
      <stop offset="1" stop-color="#80d658"/>
    </radialGradient>
    <radialGradient id="radial-gradient-6" cx="1.433" cy="3.122" r="3.353" gradientTransform="matrix(-0.613, 0, 0, 1, 1.95, 0)" gradientUnits="objectBoundingBox">
      <stop offset="0.862" stop-color="#1a3d0a" stop-opacity="0"/>
      <stop offset="1" stop-color="#1a3d0a"/>
    </radialGradient>
    <radialGradient id="radial-gradient-7" cx="0.764" cy="0.741" r="0.879" gradientTransform="matrix(-0.874, 0, 0, 1, 1.4, 0)" gradientUnits="objectBoundingBox">
      <stop offset="0" stop-color="#80d658"/>
      <stop offset="0.389" stop-color="#54b825"/>
      <stop offset="1" stop-color="#307012"/>
    </radialGradient>
    <radialGradient id="radial-gradient-8" cx="-0.079" cy="2.993" r="3.151" gradientTransform="matrix(-0.532, 0, 0, 1, 0.149, 0)" gradientUnits="objectBoundingBox">
      <stop offset="0.797" stop-color="#1a3d0a" stop-opacity="0"/>
      <stop offset="1" stop-color="#1a3d0a"/>
    </radialGradient>
    <radialGradient id="radial-gradient-9" cx="0.498" cy="-0.02" r="1.07" gradientTransform="matrix(-0.617, 0, 0, 1, 0.805, 0)" gradientUnits="objectBoundingBox">
      <stop offset="0" stop-color="#66e39d"/>
      <stop offset="0.185" stop-color="#64de99"/>
      <stop offset="0.404" stop-color="#5cd08f"/>
      <stop offset="0.64" stop-color="#50b87d"/>
      <stop offset="0.886" stop-color="#409765"/>
      <stop offset="1" stop-color="#378558"/>
    </radialGradient>
    <radialGradient id="radial-gradient-10" cx="0.789" cy="0.055" r="1.26" gradientTransform="matrix(-0.667, 0, 0, 1, 1.218, 0)" gradientUnits="objectBoundingBox">
      <stop offset="0" stop-color="#d9f08d"/>
      <stop offset="1" stop-color="#91b516"/>
    </radialGradient>
    <radialGradient id="radial-gradient-11" cx="0.864" cy="-0.006" r="1.666" gradientTransform="matrix(-0.564, 0, 0, 1, 1.193, 0)" xlink:href="#radial-gradient-10"/>
    <radialGradient id="radial-gradient-12" cx="1.383" cy="0.215" r="2.219" gradientTransform="matrix(-0.546, 0, 0, 1, 1.737, 0)" gradientUnits="objectBoundingBox">
      <stop offset="0" stop-color="#d9f08d"/>
      <stop offset="0.33" stop-color="#a1b857"/>
      <stop offset="0.631" stop-color="#768b2d"/>
      <stop offset="0.864" stop-color="#5b7013"/>
      <stop offset="1" stop-color="#516609"/>
    </radialGradient>
    <radialGradient id="radial-gradient-13" cx="0.5" cy="0.5" r="0.342" gradientTransform="matrix(-1.079, 0.5, 0.988, 1.375, 0.572, -0.484)" gradientUnits="objectBoundingBox">
      <stop offset="0" stop-color="#e6ff8a" stop-opacity="0.302"/>
      <stop offset="1" stop-color="#e6ff8a" stop-opacity="0"/>
    </radialGradient>
    <radialGradient id="radial-gradient-14" cx="0.5" cy="0.5" r="0.424" gradientTransform="matrix(-0.535, -0.804, -1.049, 0.861, -1.856, 0.934)" xlink:href="#radial-gradient-13"/>
    <radialGradient id="radial-gradient-15" cx="0.514" cy="-0.106" r="1.38" gradientTransform="matrix(-0.613, 0, 0, 1, 0.823, 0)" gradientUnits="objectBoundingBox">
      <stop offset="0" stop-color="#5ccc8d"/>
      <stop offset="0.221" stop-color="#59c789"/>
      <stop offset="0.481" stop-color="#52b97e"/>
      <stop offset="0.761" stop-color="#45a16d"/>
      <stop offset="0.998" stop-color="#378759"/>
    </radialGradient>
    <radialGradient id="radial-gradient-16" cx="0.514" cy="-0.106" r="1.38" gradientTransform="matrix(-0.613, 0, 0, 1, 0.823, 0)" gradientUnits="objectBoundingBox">
      <stop offset="0.002" stop-color="#95fcc2"/>
      <stop offset="0.178" stop-color="#91f7bd"/>
      <stop offset="0.387" stop-color="#85e9b0"/>
      <stop offset="0.611" stop-color="#70d19a"/>
      <stop offset="0.845" stop-color="#54b07c"/>
      <stop offset="0.999" stop-color="#3e9664"/>
    </radialGradient>
    <radialGradient id="radial-gradient-17" cx="0.5" cy="0.5" r="0.486" gradientTransform="matrix(0, 1, 0.99, 0, 2.546, 1.004)" gradientUnits="objectBoundingBox">
      <stop offset="0.631" stop-color="#cbf7d5" stop-opacity="0.702"/>
      <stop offset="1" stop-color="#cbf7d5" stop-opacity="0"/>
    </radialGradient>
    <radialGradient id="radial-gradient-18" cx="0.5" cy="0.5" r="0.667" gradientTransform="matrix(-0.667, 0, 0, 0.874, 0.833, 0.054)" gradientUnits="objectBoundingBox">
      <stop offset="0.514" stop-color="#94a400"/>
      <stop offset="0.833" stop-color="#213621"/>
    </radialGradient>
  </defs>
  <path id="Tracé_1" data-name="Tracé 1" d="M62.032,13.809c0-2.687-8.743-3.809-16.9-3.809C17.5,10,17.852,25.15,16.875,29.855c-1.44,6.928-5.056,34.66-13.491,30.666S4.939,69.4,4.939,69.4s.625,16.921,4.775,15.914C26.5,81.25,35,69.655,35,54.525c0-2.95-1.217-14.109-1.217-14.109,2.18,0,23.5.578,24.873-10.138,0,0,3.379-.585,3.379-4.731Z" transform="translate(100.184 -10)" fill="#47a11b"/>
  <path id="Tracé_2" data-name="Tracé 2" d="M61.715,13.8c0-2.663-8.665-3.775-16.749-3.775-27.391,0-27.07,14.968-28.036,19.631C15.5,36.525,11.982,64.6,3.439,60.651c-8.391-3.876,1.4,8.7,1.4,8.7s.622,16.772,4.735,15.775C26.21,81.093,34.693,69.546,34.693,54.551,34.693,51.624,33.513,40,33.513,40c2.163,0,23.535.642,24.87-10.007,0,0,3.329-.564,3.329-4.657C61.715,22.743,61.715,15.916,61.715,13.8Z" transform="translate(100.365 -9.938)" fill="#48a21c"/>
  <path id="Tracé_3" data-name="Tracé 3" d="M61.391,13.792c0-2.639-8.591-3.741-16.6-3.741-27.147,0-26.853,14.785-27.813,19.405-1.413,6.806-4.839,35.218-13.488,31.325-8.341-3.755,1.24,8.52,1.24,8.52s.615,16.62,4.691,15.634c16.492-3.995,24.968-15.495,24.968-30.358,0-2.9-1.139-14.995-1.139-14.995,2.143,0,23.562.706,24.863-9.875,0,0,3.278-.547,3.278-4.583C61.391,22.555,61.391,15.891,61.391,13.792Z" transform="translate(100.554 -9.879)" fill="#49a31d"/>
  <path id="Tracé_4" data-name="Tracé 4" d="M61.073,13.784c0-2.616-8.513-3.707-16.451-3.707-26.9,0-26.641,14.6-27.59,19.182C15.629,36,12.3,64.754,3.544,60.915c-8.293-3.64,1.081,8.341,1.081,8.341s.608,16.472,4.65,15.495C25.622,80.786,34.088,69.333,34.088,54.6c0-2.873-1.1-15.438-1.1-15.438,2.122,0,23.589.771,24.86-9.743,0,0,3.227-.531,3.227-4.508C61.073,22.368,61.073,15.863,61.073,13.784Z" transform="translate(100.737 -9.817)" fill="#4aa41e"/>
  <path id="Tracé_5" data-name="Tracé 5" d="M60.753,13.777c0-2.592-8.435-3.674-16.3-3.674-26.661,0-26.428,14.42-27.367,18.959C15.694,35.747,12.46,64.834,3.6,61.045c-8.243-3.521.926,8.158.926,8.158s.6,16.323,4.61,15.353c16.2-3.924,24.65-15.333,24.65-29.929,0-2.849-1.058-15.884-1.058-15.884,2.105,0,23.616.835,24.856-9.611,0,0,3.177-.514,3.177-4.434C60.753,22.178,60.753,15.835,60.753,13.777Z" transform="translate(100.925 -9.755)" fill="#4ba51f"/>
  <path id="Tracé_6" data-name="Tracé 6" d="M60.432,13.768c0-2.568-8.357-3.64-16.151-3.64-26.414,0-26.211,14.238-27.147,18.733C15.758,35.484,12.622,64.91,3.65,61.175c-8.189-3.41.767,7.979.767,7.979s.6,16.174,4.566,15.214c16.049-3.886,24.495-15.252,24.495-29.712,0-2.822-1.021-16.326-1.021-16.326,2.085,0,23.646.9,24.849-9.479,0,0,3.126-.493,3.126-4.36Z" transform="translate(101.111 -9.695)" fill="#4ca620"/>
  <path id="Tracé_7" data-name="Tracé 7" d="M60.112,13.76c0-2.545-8.28-3.606-16-3.606-26.171,0-26,14.055-26.924,18.509C15.823,35.226,12.789,64.99,3.7,61.306c-8.134-3.3.612,7.8.612,7.8S4.9,85.131,8.838,84.178c15.9-3.849,24.336-15.171,24.336-29.5,0-2.795-.98-16.769-.98-16.769,2.065,0,23.673.96,24.846-9.344,0,0,3.075-.477,3.075-4.285C60.112,21.8,60.112,15.781,60.112,13.76Z" transform="translate(101.296 -9.634)" fill="#4ca721"/>
  <path id="Tracé_8" data-name="Tracé 8" d="M59.792,13.752c0-2.521-8.205-3.572-15.853-3.572-25.927,0-25.782,13.873-26.7,18.286-1.352,6.5-4.285,36.6-13.481,32.974-8.08-3.187.453,7.617.453,7.617S4.8,84.934,8.691,83.988C24.442,80.173,32.867,68.9,32.867,54.7c0-2.768-.939-17.212-.939-17.212,2.045,0,23.7,1.024,24.839-9.212,0,0,3.025-.46,3.025-4.211Z" transform="translate(101.481 -9.572)" fill="#4da822"/>
  <path id="Tracé_9" data-name="Tracé 9" d="M59.472,13.743c0-2.5-8.128-3.538-15.7-3.538C18.084,10.2,18.2,23.9,17.29,28.265c-1.338,6.441-4.17,36.874-13.481,33.3-8.026-3.079.3,7.438.3,7.438S4.687,84.73,8.547,83.8c15.6-3.778,24.021-15,24.021-29.067,0-2.744-.9-17.654-.9-17.654,2.028,0,23.727,1.088,24.836-9.081,0,0,2.974-.439,2.974-4.137C59.472,21.428,59.472,15.73,59.472,13.743Z" transform="translate(101.665 -9.512)" fill="#4ea922"/>
  <path id="Tracé_10" data-name="Tracé 10" d="M59.157,13.736c0-2.474-8.05-3.5-15.556-3.5-25.441,0-25.356,13.508-26.255,17.837C16.021,34.445,13.291,65.212,3.865,61.7-4.1,58.73,4,68.96,4,68.96s.578,15.576,4.4,14.65c15.454-3.744,23.863-14.924,23.863-28.854,0-2.717-.862-18.1-.862-18.1,2.007,0,23.754,1.152,24.829-8.949,0,0,2.923-.422,2.923-4.062C59.157,21.241,59.157,15.7,59.157,13.736Z" transform="translate(101.845 -9.45)" fill="#4faa23"/>
  <path id="Tracé_11" data-name="Tracé 11" d="M58.835,13.728c0-2.45-7.972-3.471-15.407-3.471-25.2,0-25.14,13.325-26.032,17.614-1.311,6.316-3.94,37.418-13.477,33.964-7.911-2.866-.017,7.077-.017,7.077s.571,15.427,4.356,14.512c15.309-3.707,23.7-14.843,23.7-28.638,0-2.69-.821-18.54-.821-18.54,1.987,0,23.785,1.217,24.826-8.817,0,0,2.873-.406,2.873-3.988C58.835,21.051,58.835,15.674,58.835,13.728Z" transform="translate(102.032 -9.388)" fill="#50ab24"/>
  <path id="Tracé_12" data-name="Tracé 12" d="M58.52,13.721c0-2.426-7.895-3.44-15.258-3.44-24.954,0-24.927,13.143-25.809,17.387-1.3,6.255-3.822,37.688-13.477,34.292-7.854-2.761-.176,6.9-.176,6.9s.564,15.279,4.312,14.37c15.16-3.67,23.548-14.762,23.548-28.422,0-2.666-.781-18.983-.781-18.983,1.97,0,23.812,1.281,24.819-8.685,0,0,2.822-.385,2.822-3.913Z" transform="translate(102.216 -9.331)" fill="#51ac25"/>
  <path id="Tracé_13" data-name="Tracé 13" d="M58.2,13.714c0-2.4-7.817-3.407-15.11-3.407-24.707,0-24.714,12.96-25.586,17.164C16.219,33.666,13.8,65.427,4.03,62.094c-7.793-2.66-.331,6.718-.331,6.718s.561,15.13,4.272,14.231C22.982,79.407,31.36,68.363,31.36,54.835c0-2.639-.743-19.425-.743-19.425,1.95,0,23.839,1.345,24.816-8.553,0,0,2.771-.368,2.771-3.839Z" transform="translate(102.397 -9.269)" fill="#52ad26"/>
  <path id="Tracé_14" data-name="Tracé 14" d="M57.88,13.706c0-2.376-7.742-3.373-14.958-3.373-24.464,0-24.5,12.778-25.363,16.941C16.285,33.408,13.974,65.5,4.085,62.225c-7.732-2.558-.49,6.536-.49,6.536S4.15,83.739,7.823,82.85c14.863-3.6,23.231-14.6,23.231-27.992,0-2.612-.7-19.868-.7-19.868,1.93,0,23.866,1.409,24.812-8.422,0,0,2.72-.351,2.72-3.765C57.88,20.488,57.88,15.595,57.88,13.706Z" transform="translate(102.585 -9.208)" fill="#53ae27"/>
  <path id="Tracé_15" data-name="Tracé 15" d="M57.567,13.7c0-2.352-7.665-3.339-14.809-3.339-24.221,0-24.285,12.6-25.14,16.715-1.261,6.073-3.464,38.492-13.474,35.282-7.671-2.46-.649,6.357-.649,6.357s.547,14.829,4.187,13.951C22.4,79.1,30.758,68.147,30.758,54.886c0-2.585-.662-20.311-.662-20.311,1.913,0,23.9,1.473,24.805-8.29,0,0,2.666-.335,2.666-3.69C57.567,20.3,57.567,15.569,57.567,13.7Z" transform="translate(102.763 -9.148)" fill="#54af28"/>
  <path id="Tracé_16" data-name="Tracé 16" d="M57.249,13.689c0-2.328-7.587-3.305-14.66-3.305-23.978,0-24.072,12.413-24.917,16.492-1.25,6.012-3.346,38.756-13.471,35.61-7.611-2.362-.8,6.178-.8,6.178S3.941,83.344,7.54,82.472c14.566-3.528,22.916-14.434,22.916-27.563,0-2.562-.622-20.753-.622-20.753,1.893,0,23.923,1.534,24.8-8.158,0,0,2.616-.314,2.616-3.616C57.249,20.114,57.249,15.541,57.249,13.689Z" transform="translate(102.945 -9.086)" fill="#55b029"/>
  <path id="Tracé_17" data-name="Tracé 17" d="M56.937,13.681c0-2.3-7.509-3.271-14.512-3.271-23.734,0-23.856,12.227-24.694,16.269C16.5,32.63,14.508,65.7,4.261,62.62c-7.546-2.268-.963,6-.963,6s.537,14.532,4.1,13.667c14.42-3.491,22.758-14.353,22.758-27.347,0-2.535-.585-21.2-.585-21.2,1.872,0,23.95,1.6,24.8-8.026,0,0,2.565-.3,2.565-3.542C56.937,19.927,56.937,15.513,56.937,13.681Z" transform="translate(103.122 -9.024)" fill="#56b12a"/>
  <path id="Tracé_18" data-name="Tracé 18" d="M56.63,13.673c0-2.281-7.432-3.238-14.363-3.238-23.491,0-23.643,12.045-24.474,16.042-1.223,5.89-3.1,39.283-13.471,36.272C-3.164,60.577,3.2,68.566,3.2,68.566s.531,14.383,4.059,13.528c14.272-3.457,22.6-14.272,22.6-27.131,0-2.508-.544-21.639-.544-21.639,1.855,0,23.978,1.663,24.792-7.894,0,0,2.514-.28,2.514-3.467C56.63,19.739,56.63,15.491,56.63,13.673Z" transform="translate(103.295 -8.965)" fill="#56b22b"/>
  <path id="Tracé_19" data-name="Tracé 19" d="M56.316,13.665c0-2.258-7.354-3.2-14.214-3.2-23.244,0-23.43,11.862-24.251,15.819-1.21,5.83-2.977,39.543-13.467,36.6-7.421-2.082-1.277,5.637-1.277,5.637S3.633,82.752,7.124,81.9c14.123-3.42,22.443-14.19,22.443-26.918,0-2.484-.5-22.082-.5-22.082,1.835,0,24,1.727,24.785-7.759,0,0,2.464-.26,2.464-3.393C56.316,19.552,56.316,15.463,56.316,13.665Z" transform="translate(103.473 -8.903)" fill="#57b32c"/>
  <path id="Tracé_20" data-name="Tracé 20" d="M56.006,13.657c0-2.234-7.279-3.17-14.065-3.17-23,0-23.214,11.68-24.028,15.6-1.2,5.769-2.856,39.8-13.467,36.931-7.357-1.991-1.433,5.454-1.433,5.454s.52,14.082,3.974,13.248C20.96,78.334,29.27,67.607,29.27,55.015c0-2.457-.466-22.524-.466-22.524,1.815,0,24.035,1.791,24.782-7.628,0,0,2.413-.243,2.413-3.319C56.006,19.362,56.006,15.435,56.006,13.657Z" transform="translate(103.652 -8.841)" fill="#58b42d"/>
  <path id="Tracé_21" data-name="Tracé 21" d="M55.7,13.649c0-2.21-7.2-3.136-13.917-3.136-22.758,0-23,11.5-23.805,15.37-1.186,5.7-2.731,40.057-13.464,37.259-7.293-1.9-1.592,5.275-1.592,5.275s.517,13.934,3.934,13.106C20.677,78.174,28.98,67.5,28.98,55.038c0-2.43-.426-22.967-.426-22.967,1.795,0,24.062,1.855,24.778-7.5,0,0,2.362-.226,2.362-3.244Z" transform="translate(103.827 -8.779)" fill="#59b52e"/>
  <path id="Tracé_22" data-name="Tracé 22" d="M55.388,13.64c0-2.187-7.124-3.1-13.768-3.1-22.514,0-22.785,11.315-23.582,15.147C16.865,31.329,15.432,66,4.573,63.275c-7.225-1.811-1.747,5.1-1.747,5.1s.51,13.785,3.893,12.967C20.4,78.026,28.69,67.395,28.69,55.066c0-2.406-.385-23.41-.385-23.41,1.778,0,24.089,1.92,24.772-7.364,0,0,2.312-.206,2.312-3.17Z" transform="translate(104 -8.72)" fill="#5ab62f"/>
  <path id="Tracé_23" data-name="Tracé 23" d="M55.081,13.633c0-2.163-7.046-3.069-13.616-3.069-22.271,0-22.572,11.132-23.359,14.924-1.159,5.583-2.481,40.567-13.464,37.918-7.161-1.727-1.906,4.914-1.906,4.914s.5,13.636,3.849,12.825C20.117,77.867,28.4,67.282,28.4,55.089c0-2.379-.345-23.852-.345-23.852,1.757,0,24.116,1.984,24.768-7.232,0,0,2.261-.189,2.261-3.1C55.081,18.8,55.081,15.353,55.081,13.633Z" transform="translate(104.171 -8.658)" fill="#5bb62f"/>
  <path id="Tracé_24" data-name="Tracé 24" d="M54.773,13.625c0-2.139-6.969-3.035-13.467-3.035-22.028,0-22.359,10.95-23.136,14.7C17.024,30.81,15.814,66.1,4.709,63.537c-7.094-1.639-2.061,4.735-2.061,4.735s.5,13.488,3.809,12.687c13.383-3.241,21.656-13.782,21.656-25.84,0-2.352-.308-24.3-.308-24.3,1.737,0,24.146,2.048,24.762-7.1,0,0,2.21-.172,2.21-3.021C54.773,18.61,54.773,15.325,54.773,13.625Z" transform="translate(104.344 -8.596)" fill="#5cb730"/>
  <path id="Tracé_25" data-name="Tracé 25" d="M54.475,13.616c0-2.116-6.891-3-13.319-3-21.784,0-22.142,10.767-22.913,14.474-1.136,5.461-2.227,41.064-13.461,38.58-7.029-1.558-2.22,4.556-2.22,4.556S3.056,81.564,6.327,80.77c13.234-3.2,21.5-13.7,21.5-25.627,0-2.325-.267-24.738-.267-24.738,1.72,0,24.174,2.109,24.758-6.969,0,0,2.159-.155,2.159-2.947C54.475,18.425,54.475,15.3,54.475,13.616Z" transform="translate(104.507 -8.537)" fill="#5db831"/>
  <path id="Tracé_26" data-name="Tracé 26" d="M54.175,13.608c0-2.092-6.816-2.967-13.17-2.967-21.538,0-21.93,10.585-22.69,14.251-1.122,5.4-2.1,41.311-13.461,38.908-6.962-1.473-2.376,4.373-2.376,4.373S2.966,81.36,6.2,80.58c13.085-3.17,21.338-13.619,21.338-25.41,0-2.3-.226-25.184-.226-25.184,1.7,0,24.2,2.173,24.751-6.837,0,0,2.109-.135,2.109-2.873C54.175,18.235,54.175,15.271,54.175,13.608Z" transform="translate(104.671 -8.475)" fill="#5eb932"/>
  <path id="Tracé_27" data-name="Tracé 27" d="M53.874,13.6c0-2.068-6.739-2.933-13.021-2.933-21.294,0-21.717,10.4-22.467,14.025-1.108,5.34-1.974,41.558-13.457,39.239-6.894-1.392-2.535,4.194-2.535,4.194s.483,13.038,3.68,12.264C19.012,77.257,27.257,66.854,27.257,55.2c0-2.274-.186-25.627-.186-25.627,1.68,0,24.228,2.237,24.748-6.7,0,0,2.058-.118,2.058-2.8C53.874,18.048,53.874,15.243,53.874,13.6Z" transform="translate(104.84 -8.413)" fill="#5fba33"/>
  <path id="Tracé_28" data-name="Tracé 28" d="M53.583,13.592c0-2.045-6.661-2.9-12.872-2.9-21.051,0-21.5,10.22-22.244,13.8-1.095,5.279-1.849,41.8-13.457,39.567-6.83-1.311-2.69,4.011-2.69,4.011S2.8,80.962,5.959,80.195c12.788-3.1,21.024-13.454,21.024-24.981,0-2.247-.149-26.069-.149-26.069,1.663,0,24.255,2.3,24.741-6.573,0,0,2.007-.1,2.007-2.724Z" transform="translate(104.997 -8.353)" fill="#60bb34"/>
  <path id="Tracé_29" data-name="Tracé 29" d="M53.293,13.584c0-2.021-6.583-2.866-12.724-2.866-20.808,0-21.287,10.037-22.024,13.579-1.085,5.218-1.72,42.038-13.454,39.9-6.762-1.234-2.849,3.832-2.849,3.832s.47,12.741,3.6,11.984C18.481,76.949,26.7,66.638,26.7,55.246c0-2.224-.108-26.512-.108-26.512,1.642,0,24.285,2.366,24.738-6.441,0,0,1.957-.081,1.957-2.65C53.293,17.673,53.293,15.192,53.293,13.584Z" transform="translate(105.151 -8.292)" fill="#60bc35"/>
  <path id="Tracé_30" data-name="Tracé 30" d="M53.007,13.578c0-2-6.506-2.835-12.575-2.835-20.564,0-21.075,9.855-21.8,13.352-1.071,5.157-1.592,42.274-13.454,40.226-6.695-1.156-3.008,3.653-3.008,3.653s.466,12.592,3.555,11.842c12.494-3.025,20.71-13.292,20.71-24.549,0-2.2-.068-26.955-.068-26.955,1.622,0,24.312,2.43,24.735-6.31,0,0,1.906-.064,1.906-2.575Z" transform="translate(105.302 -8.232)" fill="#61bd36"/>
  <path id="Tracé_31" data-name="Tracé 31" d="M52.719,13.57c0-1.974-6.428-2.8-12.423-2.8-20.321,0-20.858,9.672-21.578,13.129C17.66,28.994,17.255,66.4,5.264,64.455-1.363,63.377,2.1,67.925,2.1,67.925s.46,12.44,3.511,11.7c12.345-2.991,20.551-13.21,20.551-24.336,0-2.17-.03-27.4-.03-27.4,1.6,0,24.339,2.494,24.728-6.174,0,0,1.855-.047,1.855-2.5C52.719,17.3,52.719,15.141,52.719,13.57Z" transform="translate(105.455 -8.173)" fill="#62be37"/>
  <path id="Tracé_32" data-name="Tracé 32" d="M52.437,13.562c0-1.95-6.353-2.768-12.274-2.768-20.078,0-20.645,9.49-21.355,12.906-1.044,5.032-1.335,42.74-13.45,40.885-6.56-1-3.322,3.292-3.322,3.292s.456,12.291,3.471,11.561C17.7,76.485,25.9,66.309,25.9,55.319c0-2.143.01-27.84.01-27.84,1.585,0,24.366,2.558,24.724-6.043,0,0,1.8-.03,1.8-2.426C52.437,17.11,52.437,15.113,52.437,13.562Z" transform="translate(105.602 -8.111)" fill="#63bf38"/>
  <path id="Tracé_33" data-name="Tracé 33" d="M52.16,13.554c0-1.926-6.276-2.734-12.126-2.734C20.2,10.82,19.606,20.127,18.9,23.5,17.869,28.471,17.7,66.467,5.452,64.716c-6.492-.929-3.477,3.113-3.477,3.113S2.424,79.971,5.4,79.251c12.048-2.917,20.236-13.045,20.236-23.9,0-2.119.051-28.283.051-28.283,1.565,0,24.393,2.622,24.718-5.911,0,0,1.754-.01,1.754-2.352Z" transform="translate(105.743 -8.049)" fill="#64c039"/>
  <path id="Tracé_34" data-name="Tracé 34" d="M51.891,13.545c0-1.9-6.2-2.7-11.977-2.7C20.326,10.845,19.7,19.97,19,23.3c-1.021,4.91-1.078,43.193-13.45,41.547-6.428-.855-3.636,2.93-3.636,2.93S2.361,79.773,5.3,79.06C17.2,76.177,25.382,66.1,25.382,55.37c0-2.092.091-28.726.091-28.726,1.544,0,24.424,2.687,24.714-5.779,0,0,1.7.007,1.7-2.278C51.891,16.735,51.891,15.059,51.891,13.545Z" transform="translate(105.881 -7.989)" fill="#65c13a"/>
  <path id="Tracé_35" data-name="Tracé 35" d="M51.621,13.537c0-1.879-6.12-2.666-11.828-2.666-19.344,0-20,8.939-20.686,12.23-1.007,4.85-.95,43.416-13.447,41.875-6.36-.784-3.792,2.751-3.792,2.751S2.307,79.573,5.21,78.87C16.964,76.024,25.129,65.987,25.129,55.4c0-2.065.128-29.168.128-29.168,1.528,0,24.451,2.748,24.707-5.647,0,0,1.653.024,1.653-2.2C51.621,16.545,51.621,15.031,51.621,13.537Z" transform="translate(106.016 -7.927)" fill="#66c23b"/>
  <path id="Tracé_36" data-name="Tracé 36" d="M51.361,13.53c0-1.855-6.043-2.633-11.68-2.633-19.1,0-19.787,8.756-20.463,12.007C18.226,27.693,18.4,66.54,5.772,65.111c-6.293-.713-3.951,2.572-3.951,2.572s.433,11.7,3.3,11c11.605-2.812,19.763-12.8,19.763-23.258,0-2.041.169-29.611.169-29.611,1.507,0,24.478,2.812,24.7-5.515,0,0,1.6.044,1.6-2.129Z" transform="translate(106.14 -7.866)" fill="#67c33c"/>
  <path id="Tracé_37" data-name="Tracé 37" d="M51.1,13.521c0-1.832-5.965-2.6-11.531-2.6C20.714,10.922,20,19.5,19.331,22.706c-.983,4.728-.693,43.852-13.444,42.534C-.337,64.6,1.782,67.63,1.782,67.63s.426,11.544,3.258,10.858c11.456-2.775,19.6-12.72,19.6-23.045,0-2.014.21-30.054.21-30.054,1.487,0,24.5,2.876,24.7-5.384,0,0,1.551.061,1.551-2.055C51.1,16.17,51.1,14.981,51.1,13.521Z" transform="translate(106.264 -7.806)" fill="#68c43d"/>
  <path id="Tracé_38" data-name="Tracé 38" d="M50.858,13.513c0-1.808-5.89-2.565-11.382-2.565-18.614,0-19.361,8.391-20.017,11.558-.97,4.667-.564,44.065-13.444,42.865-6.161-.575-4.265,2.21-4.265,2.21s.422,11.4,3.217,10.72c11.308-2.737,19.446-12.639,19.446-22.828,0-1.987.25-30.5.25-30.5,1.47,0,24.535,2.94,24.694-5.252,0,0,1.5.078,1.5-1.98C50.858,15.983,50.858,14.953,50.858,13.513Z" transform="translate(106.373 -7.744)" fill="#69c53d"/>
  <path id="Tracé_39" data-name="Tracé 39" d="M50.615,13.505c0-1.784-5.813-2.531-11.233-2.531-18.368,0-19.145,8.209-19.794,11.335C18.632,26.915,19.149,66.58,6.145,65.5.051,65,1.724,67.533,1.724,67.533S2.14,78.78,4.9,78.111c11.159-2.7,19.29-12.555,19.29-22.612,0-1.963.287-30.939.287-30.939,1.45,0,24.562,3,24.691-5.12,0,0,1.45.1,1.45-1.906C50.615,15.793,50.615,14.925,50.615,13.505Z" transform="translate(106.48 -7.682)" fill="#6ac63e"/>
  <path id="Tracé_40" data-name="Tracé 40" d="M50.378,13.5c0-1.761-5.735-2.5-11.081-2.5-18.124,0-18.932,8.026-19.571,11.112-.943,4.545-.311,44.478-13.44,43.524C.257,65.2,1.707,67.484,1.707,67.484s.412,11.1,3.133,10.439c11.01-2.666,19.131-12.474,19.131-22.4,0-1.936.328-31.382.328-31.382,1.43,0,24.589,3.069,24.684-4.988,0,0,1.4.115,1.4-1.832C50.378,15.609,50.378,14.9,50.378,13.5Z" transform="translate(106.582 -7.623)" fill="#6ac73f"/>
  <path id="Tracé_41" data-name="Tracé 41" d="M50.156,13.489c0-1.737-5.657-2.464-10.933-2.464-17.881,0-18.719,7.844-19.351,10.885-.933,4.485-.186,44.68-13.44,43.856C.468,65.394,1.7,67.435,1.7,67.435s.406,10.95,3.092,10.3C15.655,75.1,23.763,65.34,23.763,55.55c0-1.909.368-31.825.368-31.825,1.413,0,24.616,3.133,24.68-4.856,0,0,1.348.132,1.348-1.757C50.156,15.418,50.156,14.871,50.156,13.489Z" transform="translate(106.672 -7.561)" fill="#6bc840"/>
  <path id="Tracé_42" data-name="Tracé 42" d="M49.941,13.481c0-1.713-5.58-2.43-10.784-2.43-17.638,0-18.5,7.661-19.128,10.662C19.11,26.137,19.972,66.59,6.593,65.9c-5.9-.308-4.894,1.49-4.894,1.49s.4,10.8,3.048,10.159c10.716-2.6,18.817-12.311,18.817-21.967,0-1.882.406-32.267.406-32.267,1.392,0,24.643,3.2,24.674-4.725,0,0,1.3.149,1.3-1.683C49.941,15.231,49.941,14.843,49.941,13.481Z" transform="translate(106.752 -7.499)" fill="#6cc941"/>
  <path id="Tracé_43" data-name="Tracé 43" d="M49.736,13.473c0-1.69-5.5-2.4-10.635-2.4-17.394,0-18.29,7.479-18.9,10.439-.906,4.36.068,45.072-13.437,44.515-5.836-.24-5.049,1.308-5.049,1.308s.4,10.649,3.008,10.017C15.285,74.8,23.375,65.125,23.375,55.6c0-1.859.446-32.71.446-32.71,1.372,0,24.674,3.261,24.67-4.589,0,0,1.244.169,1.244-1.609Z" transform="translate(106.823 -7.437)" fill="#6dca42"/>
  <path id="Tracé_44" data-name="Tracé 44" d="M49.542,13.464c0-1.666-5.427-2.362-10.487-2.362-17.151,0-18.074,7.3-18.682,10.213-.892,4.3.193,45.262-13.437,44.842-5.772-.176-5.208,1.129-5.208,1.129s.389,10.5,2.964,9.878C15.112,74.64,23.2,65.015,23.2,55.627c0-1.832.487-33.153.487-33.153,1.352,0,24.7,3.322,24.664-4.458,0,0,1.193.186,1.193-1.534C49.542,14.857,49.542,14.789,49.542,13.464Z" transform="translate(106.881 -7.378)" fill="#6ecb43"/>
  <path id="Tracé_45" data-name="Tracé 45" d="M49.351,13.456c0-1.642-5.35-2.328-10.338-2.328-16.908,0-17.861,7.114-18.459,9.99-.882,4.238.314,45.447-13.433,45.174-5.711-.115-5.363.95-5.363.95s.382,10.351,2.923,9.736c10.27-2.487,18.344-12.068,18.344-21.321,0-1.8.527-33.6.527-33.6,1.335,0,24.728,3.386,24.66-4.326,0,0,1.142.2,1.142-1.46C49.351,14.666,49.351,14.761,49.351,13.456Z" transform="translate(106.938 -7.316)" fill="#6fcc44"/>
  <path id="Tracé_46" data-name="Tracé 46" d="M1,26.138c2.18,0,23.5.578,24.873-10.138H13.251Z" transform="translate(132.963 4.277)" fill="url(#linear-gradient)"/>
  <path id="Tracé_47" data-name="Tracé 47" d="M21.753,20.519c-2.166,8.834-5.448,17.3-10.368,14.971-8.435-4,1.555,8.881,1.555,8.881s.625,16.921,4.775,15.914C34.5,56.22,43,44.625,43,29.495Z" transform="translate(92.184 15.03)" fill="url(#radial-gradient)"/>
  <path id="Tracé_48" data-name="Tracé 48" d="M24.411,35.924c-.835,1.838-6.914,11.484-6.969,12.6s8.141,5.8,15.5,5.8,13.156.612,13.548-3.957-1.9-18.509-5.576-19.179S24.411,35.924,24.411,35.924Z" transform="translate(56.737 40.276)" fill="url(#radial-gradient-2)"/>
  <path id="Tracé_49" data-name="Tracé 49" d="M32.707,41.886c-.368,1.521,5.188,3.528,5.394,7.469s1.987,7.056,2.95,7.056h20.9c1.321,0-.828-9.959-.757-13.281s.558-12.795-6.7-12.866S34.644,33.863,32.707,41.886Z" transform="translate(-10.636 38.215)" fill="url(#radial-gradient-3)"/>
  <path id="Tracé_50" data-name="Tracé 50" d="M58.905,41.651c-7.55,0-36.674-9.554-36.674-9.554L14.654,43.392S35.12,56.558,58.875,56.558c35.823,0,47.144-17.732,47.144-17.732,5.667-9.273-8.513-12.886-8.513-12.886S71.693,41.651,58.905,41.651Z" transform="translate(5.335 27.929)" fill="url(#radial-gradient-4)"/>
  <path id="Tracé_51" data-name="Tracé 51" d="M9.592,39S18.24,45.22,18.24,63.23c0,3.6,9.74,7.2,20.544,7.2a43.7,43.7,0,0,0,18.009-3.6s0-28.814-21.612-39.618C13.573,34.413,9.592,39,9.592,39Z" transform="translate(73.006 30.953)" fill="url(#radial-gradient-5)"/>
  <path id="Tracé_52" data-name="Tracé 52" d="M11.67,39s4.863,3.5,7.3,12.842c0,0,24.846-1.443,32.882-10.659A34.943,34.943,0,0,0,37.26,27.21C15.651,34.415,11.67,39,11.67,39Z" transform="translate(70.928 30.951)" fill="url(#radial-gradient-6)"/>
  <path id="Tracé_53" data-name="Tracé 53" d="M46.771,31.793S36.994,41.486,34.5,53.662c.71,3.518,6.644,14.43,9.78,14.43H64.912A8.158,8.158,0,0,0,63.287,55.23c11.676-9.422,9.608-18.915,16.843-19.855-4.042-4.322-11.676-7.181-16.566-7.181S46.771,31.793,46.771,31.793Z" transform="translate(-34.497 33.292)" fill="url(#radial-gradient-7)"/>
  <path id="Tracé_54" data-name="Tracé 54" d="M42.828,31.8a53.93,53.93,0,0,0-8.182,11.146c-1.737,3.16,11.784,5.353,29.635,7.448,6.3-7.6,5.921-14.238,11.909-15.015-4.042-4.322-11.676-7.181-16.566-7.181S42.828,31.8,42.828,31.8Z" transform="translate(-30.554 33.29)" fill="url(#radial-gradient-8)"/>
  <path id="Tracé_55" data-name="Tracé 55" d="M67.609,11.225C23.588,11.225,21.831,64.536,13,64.536c0,2.464.03,4.958,6.174,5.15,3.312.1,9.02-.767,13.629-.575s21.115,10.9,33.781,10.9,17.276-.477,23.8-4.316,13.437-10.618,19.2-10.618,13.6-4.038,14.941-7.3C110.647,50.136,111.627,11.225,67.609,11.225Z" transform="translate(-6.241 -7.085)" fill="url(#radial-gradient-9)"/>
  <g id="Groupe_1" data-name="Groupe 1" transform="translate(0 47.313)">
    <path id="Tracé_56" data-name="Tracé 56" d="M76.21,44.277c-14.407,0-29.969-13.518-37.174-13.518s-10.683,1.893-14.285,1.893-4.066-1.822-7.668-1.822S12,33.915,12,37.518a6.933,6.933,0,0,0,6.759,6.759c8.574,0,8.422-3.379,20.277-3.379C46.241,40.9,51,54.415,76.21,54.415S105.781,40.9,116.589,40.9c14.312,0,17.073-7.4,17.073-9.625S132.219,24,128.924,24c-3.6,0-5.133,6.759-12.339,6.759C105.781,30.759,97.822,44.277,76.21,44.277Z" transform="translate(-12 -24)" fill="#4ab87a"/>
    <path id="Tracé_57" data-name="Tracé 57" d="M76.157,44.27c-14.407,0-29.969-13.515-37.174-13.515S28.3,32.644,24.7,32.644,20.6,30.83,17.04,30.83s-5.012,3.045-5.012,6.587a6.829,6.829,0,0,0,6.7,6.647c8.574,0,8.395-3.379,20.25-3.379,7.205,0,12.156,13.518,37.188,13.518,25.127,0,29.557-13.494,40.361-13.494,14.184,0,16.982-7.33,16.982-9.523,0-2.224-1.419-7.154-4.667-7.154-3.548,0-5.11,6.732-12.315,6.732C105.728,30.759,97.769,44.27,76.157,44.27Z" transform="translate(-11.947 -23.929)" fill="#4bb97b"/>
    <path id="Tracé_58" data-name="Tracé 58" d="M76.1,44.265c-14.407,0-29.969-13.511-37.174-13.511s-10.683,1.882-14.285,1.882-4.133-1.8-7.644-1.8-4.937,3-4.937,6.482a6.726,6.726,0,0,0,6.651,6.536c8.574,0,8.368-3.379,20.22-3.379,7.205,0,12.345,13.518,37.2,13.518,25.042,0,29.54-13.474,40.348-13.474,14.052,0,16.891-7.259,16.891-9.419,0-2.224-1.4-7.036-4.6-7.036-3.5,0-5.086,6.7-12.291,6.7C105.667,30.764,97.708,44.265,76.1,44.265Z" transform="translate(-11.886 -23.86)" fill="#4cba7c"/>
    <path id="Tracé_59" data-name="Tracé 59" d="M76.044,44.26c-14.407,0-29.969-13.511-37.174-13.511s-10.683,1.879-14.285,1.879-4.164-1.8-7.634-1.8-4.866,2.96-4.866,6.38a6.626,6.626,0,0,0,6.6,6.424c8.574,0,8.341-3.383,20.192-3.383,7.205,0,12.538,13.518,37.212,13.518,24.954,0,29.527-13.45,40.331-13.45,13.924,0,16.8-7.188,16.8-9.314,0-2.224-1.372-6.918-4.532-6.918-3.444,0-5.062,6.678-12.268,6.678C105.615,30.766,97.656,44.26,76.044,44.26Z" transform="translate(-11.834 -23.791)" fill="#4cbb7d"/>
    <path id="Tracé_60" data-name="Tracé 60" d="M75.981,44.252c-14.407,0-29.969-13.508-37.174-13.508s-10.683,1.872-14.285,1.872-4.2-1.791-7.621-1.791-4.792,2.92-4.792,6.279a6.524,6.524,0,0,0,6.543,6.313c8.574,0,8.31-3.383,20.165-3.383,7.205,0,12.731,13.521,37.225,13.521,24.87,0,29.51-13.43,40.317-13.43,13.792,0,16.7-7.117,16.7-9.209,0-2.224-1.348-6.8-4.461-6.8-3.39,0-5.039,6.651-12.244,6.651C105.552,30.768,97.593,44.252,75.981,44.252Z" transform="translate(-11.771 -23.722)" fill="#4dbc7d"/>
    <path id="Tracé_61" data-name="Tracé 61" d="M75.925,44.245c-14.407,0-29.969-13.5-37.174-13.5s-10.683,1.869-14.285,1.869-4.228-1.781-7.611-1.781S12.137,33.7,12.137,37a6.423,6.423,0,0,0,6.489,6.2c8.574,0,8.283-3.383,20.138-3.383,7.205,0,12.923,13.521,37.235,13.521,24.785,0,29.5-13.406,40.3-13.406,13.66,0,16.614-7.046,16.614-9.1,0-2.224-1.321-6.685-4.393-6.685-3.339,0-5.015,6.624-12.22,6.624C105.5,30.771,97.537,44.245,75.925,44.245Z" transform="translate(-11.715 -23.65)" fill="#4ebd7e"/>
    <path id="Tracé_62" data-name="Tracé 62" d="M75.867,44.235c-14.407,0-29.969-13.5-37.174-13.5S28.01,32.6,24.408,32.6s-4.262-1.774-7.6-1.774-4.647,2.835-4.647,6.073A6.326,6.326,0,0,0,18.6,42.988c8.574,0,8.256-3.383,20.108-3.383,7.205,0,13.116,13.521,37.249,13.521,24.7,0,29.479-13.383,40.287-13.383,13.528,0,16.519-6.975,16.519-9,0-2.224-1.3-6.566-4.326-6.566-3.285,0-4.992,6.593-12.2,6.593C105.438,30.768,97.479,44.235,75.867,44.235Z" transform="translate(-11.657 -23.576)" fill="#4fbe7f"/>
    <path id="Tracé_63" data-name="Tracé 63" d="M75.81,44.23c-14.407,0-29.969-13.5-37.174-13.5S27.953,32.588,24.35,32.588s-4.292-1.767-7.587-1.767-4.572,2.791-4.572,5.972a6.224,6.224,0,0,0,6.384,5.982c8.574,0,8.226-3.383,20.081-3.383,7.205,0,13.308,13.521,37.262,13.521,24.613,0,29.466-13.363,40.27-13.363,13.4,0,16.428-6.9,16.428-8.895,0-2.224-1.274-6.448-4.258-6.448-3.234,0-4.968,6.566-12.173,6.566C105.381,30.77,97.422,44.23,75.81,44.23Z" transform="translate(-11.6 -23.507)" fill="#50bf80"/>
    <path id="Tracé_64" data-name="Tracé 64" d="M75.752,44.226c-14.407,0-29.969-13.5-37.174-13.5S27.9,32.58,24.293,32.58s-4.326-1.757-7.573-1.757-4.5,2.751-4.5,5.867a6.127,6.127,0,0,0,6.33,5.87c8.574,0,8.2-3.386,20.054-3.386,7.205,0,13.5,13.521,37.272,13.521,24.528,0,29.449-13.339,40.257-13.339,13.268,0,16.336-6.833,16.336-8.79,0-2.224-1.25-6.33-4.187-6.33-3.18,0-4.944,6.539-12.149,6.539C105.323,30.775,97.364,44.226,75.752,44.226Z" transform="translate(-11.542 -23.438)" fill="#50c081"/>
    <path id="Tracé_65" data-name="Tracé 65" d="M75.7,44.221c-14.407,0-29.969-13.494-37.174-13.494s-10.683,1.845-14.285,1.845-4.356-1.751-7.563-1.751-4.427,2.71-4.427,5.765a6.029,6.029,0,0,0,6.276,5.759c8.574,0,8.172-3.386,20.027-3.386,7.205,0,13.69,13.521,37.286,13.521,24.44,0,29.435-13.315,40.24-13.315,13.136,0,16.242-6.762,16.242-8.685,0-2.224-1.227-6.215-4.12-6.215-3.126,0-4.921,6.512-12.122,6.512C105.267,30.777,97.308,44.221,75.7,44.221Z" transform="translate(-11.486 -23.369)" fill="#51c182"/>
    <path id="Tracé_66" data-name="Tracé 66" d="M75.64,44.213c-14.407,0-29.969-13.491-37.174-13.491S27.783,32.564,24.18,32.564s-4.39-1.744-7.55-1.744-4.356,2.666-4.356,5.664A5.929,5.929,0,0,0,18.5,42.131c8.574,0,8.145-3.386,20-3.386,7.205,0,13.883,13.525,37.3,13.525,24.356,0,29.419-13.295,40.226-13.295,13.008,0,16.151-6.691,16.151-8.584,0-2.224-1.2-6.1-4.052-6.1-3.075,0-4.9,6.485-12.1,6.485C105.21,30.779,97.251,44.213,75.64,44.213Z" transform="translate(-11.429 -23.3)" fill="#52c283"/>
    <path id="Tracé_67" data-name="Tracé 67" d="M75.582,44.208c-14.407,0-29.969-13.491-37.174-13.491s-10.683,1.835-14.285,1.835-4.42-1.734-7.54-1.734S12.3,33.444,12.3,36.378s2.565,5.536,6.168,5.536c8.574,0,8.114-3.386,19.969-3.386,7.205,0,14.076,13.525,37.31,13.525,24.272,0,29.4-13.271,40.209-13.271,12.876,0,16.059-6.62,16.059-8.479,0-2.224-1.179-5.978-3.981-5.978-3.021,0-4.873,6.458-12.075,6.458C105.153,30.785,97.194,44.208,75.582,44.208Z" transform="translate(-11.372 -23.231)" fill="#53c384"/>
    <path id="Tracé_68" data-name="Tracé 68" d="M75.52,44.2c-14.407,0-29.969-13.488-37.174-13.488s-10.683,1.832-14.285,1.832-4.454-1.727-7.526-1.727-4.207,2.582-4.207,5.458S14.838,41.7,18.44,41.7c8.574,0,8.087-3.386,19.942-3.386,7.205,0,14.268,13.525,37.323,13.525,24.187,0,29.388-13.251,40.2-13.251,12.744,0,15.965-6.549,15.965-8.374,0-2.224-1.156-5.86-3.913-5.86-2.971,0-4.85,6.431-12.051,6.431C105.091,30.784,97.132,44.2,75.52,44.2Z" transform="translate(-11.31 -23.16)" fill="#54c484"/>
    <path id="Tracé_69" data-name="Tracé 69" d="M75.469,44.2C61.062,44.2,45.5,30.712,38.295,30.712s-10.683,1.825-14.285,1.825-4.485-1.717-7.516-1.717-4.137,2.541-4.137,5.356,2.457,5.313,6.059,5.313c8.574,0,8.06-3.39,19.912-3.39,7.205,0,14.461,13.525,37.333,13.525,24.1,0,29.375-13.227,40.179-13.227,12.616,0,15.873-6.478,15.873-8.27,0-2.224-1.132-5.745-3.846-5.745-2.917,0-4.826,6.4-12.028,6.4C105.04,30.786,97.081,44.2,75.469,44.2Z" transform="translate(-11.259 -23.091)" fill="#54c585"/>
    <path id="Tracé_70" data-name="Tracé 70" d="M75.407,44.189C61,44.189,45.438,30.708,38.233,30.708S27.55,32.53,23.948,32.53s-4.518-1.71-7.5-1.71-4.062,2.5-4.062,5.252,2.406,5.2,6.005,5.2c8.574,0,8.033-3.39,19.885-3.39,7.205,0,14.653,13.525,37.347,13.525,24.015,0,29.358-13.2,40.162-13.2,12.484,0,15.782-6.408,15.782-8.165,0-2.224-1.108-5.627-3.775-5.627-2.862,0-4.8,6.377-12,6.377C104.978,30.786,97.019,44.189,75.407,44.189Z" transform="translate(-11.197 -23.02)" fill="#55c686"/>
    <path id="Tracé_71" data-name="Tracé 71" d="M75.353,44.184c-14.407,0-29.969-13.477-37.174-13.477S27.5,32.521,23.893,32.521s-4.552-1.7-7.492-1.7-3.991,2.457-3.991,5.15,2.352,5.09,5.951,5.09c8.574,0,8-3.39,19.858-3.39,7.205,0,14.843,13.525,37.36,13.525,23.93,0,29.344-13.183,40.148-13.183,12.352,0,15.691-6.337,15.691-8.06,0-2.224-1.085-5.509-3.707-5.509-2.812,0-4.779,6.35-11.98,6.35C104.924,30.791,96.965,44.184,75.353,44.184Z" transform="translate(-11.143 -22.951)" fill="#56c787"/>
    <path id="Tracé_72" data-name="Tracé 72" d="M75.293,44.173C60.886,44.173,45.324,30.7,38.119,30.7s-10.683,1.811-14.285,1.811-4.583-1.693-7.479-1.693-3.917,2.416-3.917,5.049,2.3,4.978,5.9,4.978c8.574,0,7.976-3.39,19.831-3.39,7.205,0,15.035,13.525,37.37,13.525,23.842,0,29.327-13.16,40.131-13.16,12.22,0,15.6-6.266,15.6-7.955,0-2.224-1.061-5.39-3.64-5.39-2.758,0-4.755,6.323-11.957,6.323C104.864,30.791,96.905,44.173,75.293,44.173Z" transform="translate(-11.083 -22.879)" fill="#57c888"/>
    <path id="Tracé_73" data-name="Tracé 73" d="M75.239,44.171C60.832,44.171,45.27,30.7,38.065,30.7S27.382,32.5,23.78,32.5s-4.616-1.686-7.469-1.686-3.846,2.372-3.846,4.944,2.244,4.866,5.847,4.866c8.574,0,7.949-3.393,19.8-3.393,7.205,0,15.228,13.528,37.384,13.528,23.758,0,29.314-13.136,40.118-13.136,12.092,0,15.505-6.195,15.505-7.851,0-2.224-1.037-5.275-3.572-5.275-2.707,0-4.731,6.3-11.933,6.3C104.81,30.8,96.851,44.171,75.239,44.171Z" transform="translate(-11.029 -22.813)" fill="#58c989"/>
    <path id="Tracé_74" data-name="Tracé 74" d="M75.177,44.161C60.77,44.161,45.208,30.691,38,30.691s-10.683,1.8-14.285,1.8-4.647-1.68-7.455-1.68-3.772,2.332-3.772,4.843,2.19,4.758,5.792,4.758c8.574,0,7.918-3.393,19.773-3.393,7.205,0,15.421,13.528,37.4,13.528,23.673,0,29.3-13.116,40.1-13.116,11.96,0,15.414-6.124,15.414-7.746,0-2.224-1.014-5.157-3.5-5.157-2.653,0-4.708,6.266-11.909,6.266C104.748,30.8,96.789,44.161,75.177,44.161Z" transform="translate(-10.967 -22.739)" fill="#58ca8a"/>
    <path id="Tracé_75" data-name="Tracé 75" d="M75.125,44.154c-14.407,0-29.969-13.467-37.174-13.467s-10.683,1.795-14.285,1.795-4.681-1.669-7.445-1.669-3.7,2.291-3.7,4.741S14.656,40.2,18.258,40.2c8.574,0,7.891-3.393,19.746-3.393,7.205,0,15.613,13.528,37.408,13.528C99,50.335,104.7,37.243,115.5,37.243c11.828,0,15.319-6.053,15.319-7.644,0-2.224-.99-5.039-3.434-5.039-2.6,0-4.684,6.239-11.886,6.239C104.7,30.8,96.737,44.154,75.125,44.154Z" transform="translate(-10.915 -22.667)" fill="#59cb8b"/>
    <path id="Tracé_76" data-name="Tracé 76" d="M75.063,44.152c-14.407,0-29.969-13.467-37.174-13.467S27.206,32.476,23.6,32.476s-4.711-1.663-7.432-1.663-3.626,2.247-3.626,4.637,2.082,4.535,5.684,4.535c8.574,0,7.864-3.393,19.719-3.393,7.205,0,15.806,13.528,37.421,13.528,23.5,0,29.266-13.072,40.071-13.072,11.7,0,15.228-5.982,15.228-7.54,0-2.224-.967-4.921-3.366-4.921-2.548,0-4.66,6.212-11.862,6.212C104.634,30.8,96.675,44.152,75.063,44.152Z" transform="translate(-10.853 -22.601)" fill="#5acb8b"/>
    <path id="Tracé_77" data-name="Tracé 77" d="M75.006,44.147c-14.407,0-29.969-13.464-37.174-13.464s-10.683,1.784-14.285,1.784-4.745-1.656-7.421-1.656-3.552,2.207-3.552,4.535,2.028,4.424,5.63,4.424c8.574,0,7.837-3.393,19.689-3.393,7.205,0,16,13.528,37.435,13.528,23.417,0,29.253-13.048,40.057-13.048,11.568,0,15.137-5.911,15.137-7.435,0-2.224-.943-4.806-3.3-4.806-2.494,0-4.637,6.184-11.838,6.184C104.576,30.8,96.618,44.147,75.006,44.147Z" transform="translate(-10.795 -22.532)" fill="#5bcc8c"/>
    <path id="Tracé_78" data-name="Tracé 78" d="M74.95,44.139c-14.407,0-29.969-13.461-37.174-13.461s-10.683,1.778-14.285,1.778-4.775-1.646-7.408-1.646S12.6,32.976,12.6,35.244s1.974,4.312,5.576,4.312c8.574,0,7.807-3.4,19.662-3.4,7.205,0,16.188,13.528,37.445,13.528,23.329,0,29.236-13.025,40.04-13.025,11.436,0,15.042-5.84,15.042-7.33,0-2.224-.919-4.687-3.227-4.687-2.443,0-4.613,6.157-11.815,6.157C104.521,30.807,96.562,44.139,74.95,44.139Z" transform="translate(-10.74 -22.463)" fill="#5bcd8d"/>
    <path id="Tracé_79" data-name="Tracé 79" d="M74.892,44.134c-14.407,0-29.969-13.457-37.174-13.457s-10.683,1.774-14.285,1.774-4.809-1.639-7.4-1.639-3.407,2.122-3.407,4.329,1.92,4.2,5.522,4.2c8.574,0,7.78-3.4,19.635-3.4,7.205,0,16.38,13.528,37.458,13.528,23.244,0,29.222-13,40.027-13,11.308,0,14.951-5.769,14.951-7.225,0-2.224-.9-4.569-3.16-4.569-2.389,0-4.589,6.13-11.791,6.13C104.462,30.809,96.5,44.134,74.892,44.134Z" transform="translate(-10.681 -22.394)" fill="#5cce8e"/>
    <path id="Tracé_80" data-name="Tracé 80" d="M74.835,44.125c-14.407,0-29.969-13.457-37.174-13.457s-10.683,1.767-14.285,1.767-4.839-1.629-7.384-1.629-3.336,2.082-3.336,4.228,1.865,4.089,5.468,4.089c8.574,0,7.753-3.4,19.6-3.4,7.205,0,16.573,13.531,37.472,13.531,23.16,0,29.206-12.981,40.01-12.981,11.176,0,14.86-5.7,14.86-7.121,0-2.224-.872-4.451-3.092-4.451-2.335,0-4.566,6.1-11.767,6.1C104.406,30.809,96.447,44.125,74.835,44.125Z" transform="translate(-10.625 -22.32)" fill="#5dcf8f"/>
    <path id="Tracé_81" data-name="Tracé 81" d="M74.779,44.117c-14.407,0-29.969-13.454-37.174-13.454s-10.683,1.764-14.285,1.764-4.873-1.622-7.374-1.622-3.261,2.038-3.261,4.126S14.5,38.91,18.1,38.91c8.574,0,7.726-3.4,19.577-3.4,7.205,0,16.766,13.531,37.482,13.531,23.075,0,29.192-12.957,40-12.957,11.044,0,14.765-5.627,14.765-7.016,0-2.224-.848-4.336-3.021-4.336-2.285,0-4.542,6.076-11.744,6.076C104.349,30.809,96.391,44.117,74.779,44.117Z" transform="translate(-10.568 -22.249)" fill="#5ed090"/>
    <path id="Tracé_82" data-name="Tracé 82" d="M74.726,44.115c-14.407,0-29.969-13.45-37.174-13.45s-10.683,1.757-14.285,1.757-4.907-1.615-7.364-1.615-3.19,2-3.19,4.022,1.761,3.866,5.36,3.866c8.574,0,7.7-3.4,19.55-3.4,7.205,0,16.958,13.531,37.5,13.531,22.987,0,29.175-12.937,39.979-12.937,10.912,0,14.674-5.556,14.674-6.911,0-2.224-.825-4.218-2.954-4.218-2.23,0-4.518,6.049-11.72,6.049C104.3,30.813,96.338,44.115,74.726,44.115Z" transform="translate(-10.515 -22.182)" fill="#5fd191"/>
    <path id="Tracé_83" data-name="Tracé 83" d="M74.663,44.105c-14.407,0-29.969-13.447-37.174-13.447S26.806,32.412,23.2,32.412s-4.937-1.605-7.35-1.605-3.116,1.957-3.116,3.92,1.707,3.755,5.306,3.755c8.574,0,7.668-3.4,19.523-3.4,7.205,0,17.151,13.531,37.509,13.531,22.9,0,29.158-12.913,39.966-12.913,10.784,0,14.583-5.485,14.583-6.806,0-2.224-.8-4.1-2.886-4.1-2.18,0-4.495,6.022-11.7,6.022C104.233,30.814,96.275,44.105,74.663,44.105Z" transform="translate(-10.452 -22.108)" fill="#5fd292"/>
    <path id="Tracé_84" data-name="Tracé 84" d="M74.607,44.1C60.2,44.1,44.638,30.659,37.433,30.659S26.75,32.407,23.148,32.407s-4.971-1.6-7.34-1.6-3.042,1.913-3.042,3.819,1.653,3.643,5.255,3.643c8.574,0,7.641-3.4,19.493-3.4,7.205,0,17.344,13.531,37.519,13.531,22.818,0,29.145-12.893,39.949-12.893,10.652,0,14.488-5.411,14.488-6.7,0-2.224-.777-3.981-2.815-3.981-2.126,0-4.471,6-11.673,6C104.178,30.818,96.219,44.1,74.607,44.1Z" transform="translate(-10.397 -22.042)" fill="#60d392"/>
    <path id="Tracé_85" data-name="Tracé 85" d="M74.549,44.1c-14.407,0-29.969-13.444-37.174-13.444S26.692,32.4,23.089,32.4s-5-1.592-7.327-1.592-2.971,1.872-2.971,3.714,1.6,3.532,5.2,3.532c8.574,0,7.611-3.4,19.466-3.4,7.205,0,17.533,13.531,37.533,13.531,22.73,0,29.128-12.869,39.935-12.869,10.52,0,14.4-5.34,14.4-6.6,0-2.224-.754-3.863-2.748-3.863-2.072,0-4.444,5.965-11.649,5.965C104.119,30.823,96.161,44.1,74.549,44.1Z" transform="translate(-10.339 -21.975)" fill="#61d493"/>
    <path id="Tracé_86" data-name="Tracé 86" d="M74.492,44.085c-14.407,0-29.969-13.44-37.174-13.44s-10.683,1.737-14.285,1.737S18,30.8,15.716,30.8s-2.9,1.828-2.9,3.613,1.544,3.423,5.147,3.423c8.574,0,7.584-3.4,19.439-3.4,7.205,0,17.725,13.535,37.543,13.535,22.646,0,29.114-12.845,39.919-12.845,10.392,0,14.305-5.269,14.305-6.5,0-2.224-.73-3.748-2.68-3.748-2.021,0-4.42,5.938-11.625,5.938C104.063,30.821,96.1,44.085,74.492,44.085Z" transform="translate(-10.282 -21.899)" fill="#62d594"/>
    <path id="Tracé_87" data-name="Tracé 87" d="M74.436,44.078c-14.407,0-29.969-13.437-37.174-13.437s-10.683,1.734-14.285,1.734S17.91,30.8,15.673,30.8s-2.825,1.788-2.825,3.511,1.49,3.312,5.093,3.312c8.574,0,7.557-3.4,19.408-3.4,7.205,0,17.918,13.535,37.556,13.535,22.562,0,29.1-12.825,39.905-12.825,10.26,0,14.211-5.2,14.211-6.391,0-2.224-.706-3.63-2.612-3.63-1.967,0-4.4,5.911-11.6,5.911C104.006,30.82,96.048,44.078,74.436,44.078Z" transform="translate(-10.226 -21.828)" fill="#63d695"/>
    <path id="Tracé_88" data-name="Tracé 88" d="M74.378,44.076c-14.407,0-29.969-13.433-37.174-13.433s-10.683,1.727-14.285,1.727-5.1-1.568-7.293-1.568-2.751,1.747-2.751,3.407,1.436,3.2,5.039,3.2c8.574,0,7.53-3.4,19.381-3.4C44.5,34,55.406,47.54,74.865,47.54c22.474,0,29.084-12.8,39.888-12.8,10.128,0,14.12-5.127,14.12-6.286,0-2.224-.683-3.511-2.541-3.511-1.916,0-4.373,5.884-11.578,5.884C103.949,30.825,95.99,44.076,74.378,44.076Z" transform="translate(-10.168 -21.761)" fill="#63d796"/>
    <path id="Tracé_89" data-name="Tracé 89" d="M74.321,44.066c-14.407,0-29.969-13.433-37.174-13.433s-10.683,1.724-14.285,1.724S17.731,30.8,15.582,30.8,12.9,32.5,12.9,34.1s1.382,3.089,4.985,3.089c8.574,0,7.5-3.4,19.354-3.4,7.205,0,18.3,13.535,37.58,13.535,22.389,0,29.067-12.778,39.875-12.778,10,0,14.028-5.056,14.028-6.181,0-2.224-.659-3.393-2.474-3.393-1.862,0-4.349,5.857-11.554,5.857C103.891,30.825,95.933,44.066,74.321,44.066Z" transform="translate(-10.111 -21.687)" fill="#64d897"/>
    <path id="Tracé_90" data-name="Tracé 90" d="M74.264,44.064c-14.407,0-29.969-13.43-37.174-13.43S26.407,32.35,22.8,32.35,17.641,30.8,15.536,30.8,12.93,32.462,12.93,34s1.328,2.977,4.931,2.977c8.574,0,7.472-3.4,19.327-3.4,7.205,0,18.5,13.535,37.593,13.535,22.3,0,29.054-12.758,39.858-12.758,9.868,0,13.934-4.985,13.934-6.076,0-2.224-.635-3.278-2.406-3.278-1.808,0-4.326,5.83-11.531,5.83C103.835,30.83,95.876,44.064,74.264,44.064Z" transform="translate(-10.054 -21.621)" fill="#65d998"/>
    <path id="Tracé_91" data-name="Tracé 91" d="M74.2,44.053c-14.407,0-29.969-13.427-37.174-13.427S26.346,32.34,22.743,32.34,17.549,30.8,15.487,30.8s-2.531,1.619-2.531,3.1,1.274,2.866,4.877,2.866c8.574,0,7.445-3.4,19.3-3.4,7.205,0,18.685,13.535,37.607,13.535,22.217,0,29.037-12.734,39.844-12.734,9.736,0,13.842-4.914,13.842-5.972,0-2.224-.612-3.16-2.335-3.16-1.757,0-4.3,5.8-11.507,5.8C103.773,30.829,95.814,44.053,74.2,44.053Z" transform="translate(-9.992 -21.549)" fill="#66da99"/>
    <path id="Tracé_92" data-name="Tracé 92" d="M74.15,44.048c-14.407,0-29.969-13.423-37.174-13.423s-10.683,1.707-14.285,1.707S17.463,30.8,15.445,30.8s-2.46,1.578-2.46,3,1.22,2.754,4.823,2.754c8.574,0,7.415-3.4,19.27-3.4,7.205,0,18.878,13.535,37.617,13.535,22.132,0,29.023-12.714,39.827-12.714,9.6,0,13.751-4.843,13.751-5.867,0-2.224-.588-3.042-2.268-3.042-1.7,0-4.278,5.776-11.484,5.776C103.721,30.835,95.762,44.048,74.15,44.048Z" transform="translate(-9.94 -21.48)" fill="#67db99"/>
    <path id="Tracé_93" data-name="Tracé 93" d="M74.088,44.046c-14.407,0-29.969-13.423-37.174-13.423s-10.683,1.7-14.285,1.7-5.262-1.528-7.232-1.528-2.386,1.538-2.386,2.9,1.169,2.643,4.768,2.643c8.574,0,7.388-3.407,19.243-3.407,7.205,0,19.07,13.538,37.631,13.538,22.048,0,29.006-12.69,39.814-12.69,9.476,0,13.66-4.772,13.66-5.765,0-2.224-.564-2.923-2.2-2.923-1.653,0-4.255,5.749-11.46,5.749C103.658,30.839,95.7,44.046,74.088,44.046Z" transform="translate(-9.877 -21.413)" fill="#67dc9a"/>
    <path id="Tracé_94" data-name="Tracé 94" d="M74.035,44.039c-14.407,0-29.969-13.42-37.174-13.42s-10.683,1.7-14.285,1.7S17.284,30.8,15.354,30.8s-2.315,1.494-2.315,2.791,1.115,2.531,4.714,2.531c8.574,0,7.361-3.407,19.216-3.407,7.205,0,19.263,13.538,37.644,13.538,21.96,0,28.993-12.666,39.8-12.666,9.344,0,13.565-4.7,13.565-5.661,0-2.224-.541-2.808-2.129-2.808s-4.231,5.721-11.436,5.721C103.606,30.838,95.647,44.039,74.035,44.039Z" transform="translate(-9.825 -21.342)" fill="#68dd9b"/>
    <path id="Tracé_95" data-name="Tracé 95" d="M73.974,44.034C59.567,44.034,44,30.617,36.8,30.617s-10.683,1.69-14.285,1.69S17.188,30.8,15.306,30.8s-2.241,1.453-2.241,2.69,1.061,2.42,4.664,2.42c8.574,0,7.333-3.407,19.185-3.407,7.205,0,19.456,13.538,37.654,13.538,21.875,0,28.976-12.646,39.783-12.646,9.213,0,13.474-4.63,13.474-5.556,0-2.224-.517-2.69-2.061-2.69s-4.207,5.694-11.413,5.694C103.544,30.84,95.585,44.034,73.974,44.034Z" transform="translate(-9.763 -21.273)" fill="#69de9c"/>
  </g>
  <path id="Tracé_96" data-name="Tracé 96" d="M25.058,35.737c1.656.608,5.079,3.6,5.079,7.205s-3.6,7.2-21.612,7.2C8.526,42.939,21.017,38.626,25.058,35.737Z" transform="translate(103.264 51.241)" fill="url(#radial-gradient-10)"/>
  <path id="Tracé_97" data-name="Tracé 97" d="M48.612,37.179c2.092.433,5.286,4.539,5.286,6.985,0,2.024-2.3,2.528-6.509,2.528-1.653,0-8.33.02-10.389.02C37,41.819,44.573,39.139,48.612,37.179Z" transform="translate(-16.723 54.672)" fill="url(#radial-gradient-11)"/>
  <path id="Tracé_98" data-name="Tracé 98" d="M32.013,41.893h7.81c.889,0,2.322-.287,2.322-1.129s-1.092-4.437-3.065-4.4C37.353,36.4,32.013,39.531,32.013,41.893Z" transform="translate(11.883 52.733)" fill="url(#radial-gradient-12)"/>
  <path id="Tracé_99" data-name="Tracé 99" d="M13.012,43.963c3.082,5.346,8.314,8.1,11.683,6.161s3.6-7.851.517-13.2-8.314-8.1-11.683-6.161S9.927,38.617,13.012,43.963Z" transform="translate(98.193 37.932)" fill="url(#radial-gradient-13)"/>
  <path id="Tracé_100" data-name="Tracé 100" d="M42.683,34.589c-4.093,3.021-5.718,7.759-3.633,10.585s7.094,2.663,11.186-.358,5.718-7.759,3.633-10.585S46.775,31.568,42.683,34.589Z" transform="translate(-21.459 42.859)" fill="url(#radial-gradient-14)"/>
  <path id="Tracé_101" data-name="Tracé 101" d="M38.426,57.218c1.085,2.761,8.648,9.152,21.071,9.152,9.632,0,17.4-4.2,18.543-5.3,3.129-3.011-5.421-20.737-9.513-21.311-1.612-.226-21.115-.882-22.156-.483C44.479,40.009,37.28,54.3,38.426,57.218ZM58.737,12.355a68.091,68.091,0,0,1,20.987,3.758C78.608,28.566,71.258,33.5,68.405,33.5c-3.974,0-17.428-.49-20.949-.6-2.714-.088-9.54-12.315-8.668-13.244C40.856,17.441,47.834,12.355,58.737,12.355ZM32.279,25.126c.96-.679,6.3,4.954,7.54,10.068.517,2.143-6.546,18.418-8.239,19.652-2.656,1.936-9.909-1.078-14.914-1.291C14.813,53.473,24.147,30.885,32.279,25.126Zm55.5-2.464c2.643-.825,16.678,23.66,16.816,26.5.28,5.755-7.283,2.349-16.566,7.3-1.517.808-10.987-17.942-10.669-19.375C77.658,35.731,83.312,24.055,87.78,22.662Z" transform="translate(2.094 -4.396)" fill="url(#radial-gradient-15)"/>
  <path id="Tracé_102" data-name="Tracé 102" d="M38.426,56.863c1.085,2.761,8.648,9.152,21.071,9.152,9.632,0,17.4-4.2,18.543-5.3C81.17,57.7,72.62,39.979,68.527,39.4c-1.612-.226-21.115-.882-22.156-.483C44.479,39.654,37.28,53.943,38.426,56.863ZM58.737,12a68.091,68.091,0,0,1,20.987,3.758c-1.115,12.453-8.466,17.387-11.318,17.387-3.974,0-17.428-.49-20.949-.6-2.714-.088-9.54-12.315-8.668-13.244C40.856,17.086,47.834,12,58.737,12ZM32.279,24.771c.96-.679,6.3,4.954,7.54,10.068.517,2.143-6.546,18.418-8.239,19.652-2.656,1.936-9.909-1.078-14.914-1.291C14.813,53.122,24.147,30.53,32.279,24.771Zm55.5-2.464c2.643-.825,16.678,23.66,16.816,26.5.28,5.755-7.283,2.349-16.566,7.3-1.517.808-10.987-17.942-10.669-19.375C77.658,35.376,83.312,23.7,87.78,22.307Z" transform="translate(2.094 -5.241)" fill="url(#radial-gradient-16)"/>
  <ellipse id="Ellipse_1" data-name="Ellipse 1" cx="1.288" cy="1.612" rx="1.288" ry="1.612" transform="translate(155.93 5.664)" fill="#2d6313"/>
  <ellipse id="Ellipse_2" data-name="Ellipse 2" cx="6.512" cy="4.461" rx="6.512" ry="4.461" transform="translate(137.15 5.678)" fill="url(#radial-gradient-17)"/>
  <path id="Tracé_103" data-name="Tracé 103" d="M4,15.379a5.712,5.712,0,0,0,5.106,3.379c3.258,0,5.032-3.379,5.032-3.379S12.4,12,9.106,12A5.941,5.941,0,0,0,4,15.379Z" transform="translate(134.559 -5.241)" fill="url(#radial-gradient-18)"/>
  <ellipse id="Ellipse_3" data-name="Ellipse 3" cx="1.69" cy="1.69" rx="1.69" ry="1.69" transform="translate(141.939 8.449)"/>
  <ellipse id="Ellipse_4" data-name="Ellipse 4" cx="0.845" cy="0.845" rx="0.845" ry="0.845" transform="translate(143.628 8.449)" fill="#fff"/>
</svg>
